<?xml version="1.0" encoding="UTF-8" standalone="no"?><!-- Generator: Gravit.io --><svg xmlns="http://www.w3.org/2000/svg" xmlns:xlink="http://www.w3.org/1999/xlink" style="isolation:isolate" viewBox="0 0 512 512" width="512pt" height="512pt"><g><path d=" M 177.165 244.56 L 266.723 244.56 C 262.455 294.419 220.326 333.589 135.255 333.589 C 60.606 333.589 0 289.861 0 236 C 0 182.139 60.606 138.411 135.255 138.411 C 219.556 138.411 260.673 175.8 266.389 224.015 L 176.285 224.015 C 170.889 206.218 153.785 193.198 133.543 193.198 C 108.974 193.198 89.028 212.377 89.028 236 C 89.028 259.623 108.974 278.802 133.543 278.802 C 155.062 278.802 173.036 264.087 177.165 244.56 Z " fill="rgb(235,82,34)"/><path d=" M 300.843 244.56 L 238.067 321.604 L 340.792 321.604 L 375.033 283.938 L 409.275 321.604 L 512 321.604 L 449.224 244.56 L 300.843 244.56 Z  M 309.379 224.015 L 251.763 150.396 L 351.064 150.396 L 375.033 177.789 L 399.002 150.396 L 494.879 150.396 L 440.465 224.015 L 309.379 224.015 Z " fill-rule="evenodd" fill="rgb(235,82,34)"/></g></svg>