<?xml version="1.0" encoding="UTF-8" standalone="no"?>
<!-- Created with Inkscape (http://www.inkscape.org/) -->

<svg
   version="1.1"
   id="svg2"
   width="512"
   height="76.903183"
   viewBox="0 0 512 76.903182"
   sodipodi:docname="logo_crx.svg"
   inkscape:version="1.3 (0e150ed6c4, 2023-07-21)"
   xmlns:inkscape="http://www.inkscape.org/namespaces/inkscape"
   xmlns:sodipodi="http://sodipodi.sourceforge.net/DTD/sodipodi-0.dtd"
   xmlns="http://www.w3.org/2000/svg"
  >
  <sodipodi:namedview
     id="namedview72"
     pagecolor="#505050"
     bordercolor="#ffffff"
     borderopacity="1"
     inkscape:showpageshadow="0"
     inkscape:pageopacity="0"
     inkscape:pagecheckerboard="1"
     inkscape:deskcolor="#505050"
     showgrid="false"
     inkscape:zoom="3.3090388"
     inkscape:cx="383.948354"
     inkscape:cy="71.1687031"
     inkscape:window-width="1920"
     inkscape:window-height="1009"
     inkscape:window-x="1912"
     inkscape:window-y="-8"
     inkscape:window-maximized="1"
     inkscape:current-layer="svg2" />
  <defs
     id="defs1" />
  <path
     d="m 343.466189,112.193713 h -2.4293 v 6.571897 h -4.487813 v -18.616113 h 7.326259 q 3.31152,0 5.178245,1.470366 1.866726,1.470366 1.866726,4.155383 0,1.94344 -0.792719,3.222019 -0.779934,1.278579 -2.454872,2.071298 l 3.88688,7.50526 v 0.191787 h -4.807457 z m -2.4293,-3.46495 h 2.838446 q 1.278579,0 1.917868,-0.664861 0.652076,-0.677647 0.652076,-1.879511 0,-1.201864 -0.652076,-1.879511 -0.652075,-0.690433 -1.917868,-0.690433 h -2.838446 z m 17.375891,10.036847 h -4.475027 v -18.616113 h 4.475027 z m 14.844304,-7.415759 h -7.236758 v 7.415759 h -4.487813 v -18.616113 h 12.453361 v 3.46495 h -7.965548 v 4.28324 h 7.236758 z m 5.07596,3.234805 q 1.022863,0 1.70051,0.613718 0.677647,0.600932 0.677647,1.547081 0,0.946148 -0.677647,1.559866 -0.677647,0.600932 -1.70051,0.600932 -1.035649,0 -1.713296,-0.613718 -0.664861,-0.613718 -0.664861,-1.54708 0,-0.933363 0.664861,-1.547081 0.677647,-0.613718 1.713296,-0.613718 z m 0,-10.203062 q 1.022863,0 1.70051,0.613718 0.677647,0.600933 0.677647,1.547081 0,0.946149 -0.677647,1.559867 -0.677647,0.600932 -1.70051,0.600932 -1.035649,0 -1.713296,-0.613718 -0.664861,-0.613718 -0.664861,-1.547081 0,-0.933363 0.664861,-1.547081 0.677647,-0.613718 1.713296,-0.613718 z m 19.319329,-4.232097 h 4.475027 v 12.773006 q 0,1.777225 -0.831076,3.170876 -0.818291,1.393652 -2.301443,2.160799 -1.470366,0.767148 -3.285948,0.767148 -3.043018,0 -4.730743,-1.534295 -1.687724,-1.534295 -1.687724,-4.347169 h 4.500598 q 0,1.278579 0.434717,1.853939 0.447503,0.575361 1.483152,0.575361 0.933363,0 1.432009,-0.690433 0.511431,-0.703218 0.511431,-1.956226 z m 15.521951,12.261574 h -7.68426 v -3.337091 h 7.68426 z m 16.212381,-1.253007 q 0,3.771808 -1.70051,5.817535 -1.687725,2.045727 -4.769101,2.045727 -3.106947,0 -4.807457,-2.058513 -1.70051,-2.058512 -1.70051,-5.804749 v -3.401021 q 0,-3.771808 1.687724,-5.817535 1.70051,-2.0457264 4.794672,-2.0457264 3.094161,0 4.794672,2.0585124 1.70051,2.058512 1.70051,5.817535 z m -4.308812,-3.95081 q 0,-2.007369 -0.524217,-2.991875 -0.524218,-0.997292 -1.662153,-0.997292 -1.112364,0 -1.623796,0.920577 -0.498646,0.920577 -0.537003,2.787303 v 4.756314 q 0,2.084084 0.524218,3.055804 0.524217,0.958935 1.662152,0.958935 1.099578,0 1.623796,-0.933363 0.524217,-0.946149 0.537003,-2.953518 z m 19.472768,3.95081 q 0,3.771808 -1.700511,5.817535 -1.687724,2.045727 -4.7691,2.045727 -3.106947,0 -4.807457,-2.058513 -1.700511,-2.058512 -1.700511,-5.804749 v -3.401021 q 0,-3.771808 1.687725,-5.817535 1.70051,-2.0457264 4.794671,-2.0457264 3.094162,0 4.794672,2.0585124 1.700511,2.058512 1.700511,5.817535 z m -4.308812,-3.95081 q 0,-2.007369 -0.524218,-2.991875 -0.524217,-0.997292 -1.662153,-0.997292 -1.112363,0 -1.623795,0.920577 -0.498646,0.920577 -0.537003,2.787303 v 4.756314 q 0,2.084084 0.524217,3.055804 0.524218,0.958935 1.662153,0.958935 1.099578,0 1.623796,-0.933363 0.524217,-0.946149 0.537003,-2.953518 z m 19.47276,3.95081 q 0,3.771808 -1.700511,5.817535 -1.687724,2.045727 -4.7691,2.045727 -3.106947,0 -4.807457,-2.058513 -1.700511,-2.058512 -1.700511,-5.804749 v -3.401021 q 0,-3.771808 1.687725,-5.817535 1.70051,-2.0457264 4.794672,-2.0457264 3.094161,0 4.794671,2.0585124 1.700511,2.058512 1.700511,5.817535 z m -4.308812,-3.95081 q 0,-2.007369 -0.524218,-2.991875 -0.524217,-0.997292 -1.662152,-0.997292 -1.112364,0 -1.623796,0.920577 -0.498646,0.920577 -0.537003,2.787303 v 4.756314 q 0,2.084084 0.524217,3.055804 0.524218,0.958935 1.662153,0.958935 1.099578,0 1.623796,-0.933363 0.524217,-0.946149 0.537003,-2.953518 z m 19.485545,-4.756314 -6.95547,16.31467 h -4.551742 l 6.968256,-15.291807 h -8.873339 v -3.324306 h 13.412295 z m 13.604082,9.039554 h 1.892297 v 3.324306 h -1.892297 v 3.95081 h -4.308812 v -3.95081 h -7.1984 l -0.255716,-2.633873 7.454116,-11.993072 v -0.03836 h 4.308812 z m -7.658689,0 h 3.349877 v -5.728034 l -0.268501,0.434717 z m 11.699006,-1.828368 1.137936,-9.512629 h 10.880708 v 3.349878 h -7.377402 l -0.421931,3.695094 q 0.460289,-0.268502 1.201865,-0.473075 0.754361,-0.204572 1.470366,-0.204572 2.774516,0 4.257668,1.649367 1.495938,1.636581 1.495938,4.602885 0,1.79001 -0.805505,3.247591 -0.792719,1.444794 -2.237514,2.224727 -1.444794,0.779934 -3.413806,0.779934 -1.751653,0 -3.285948,-0.716005 -1.534295,-0.72879 -2.403729,-1.981797 -0.869434,-1.265794 -0.856648,-2.851232 h 4.321597 q 0.06393,1.022863 0.652076,1.623796 0.588146,0.600932 1.547081,0.600932 2.173584,0 2.173584,-3.22202 0,-2.979089 -2.659445,-2.979089 -1.508723,0 -2.250299,0.97172 z m 23.39799,1.905083 q -1.393651,1.253008 -3.119733,1.253008 -2.531587,0 -4.014738,-1.713296 -1.483152,-1.713296 -1.483152,-4.577314 0,-1.79001 0.831076,-3.324305 0.831077,-1.534295 2.327014,-2.429301 1.508724,-0.8950052 3.324306,-0.8950052 1.841154,0 3.324306,0.9333632 1.495937,0.920577 2.327014,2.621087 0.831076,1.687724 0.856648,3.899666 v 1.649367 q 0,3.081376 -1.21465,5.344461 -1.201865,2.263085 -3.439378,3.477735 -2.237514,1.214651 -5.216603,1.214651 h -0.268502 v -3.452164 l 0.818291,-0.01279 q 4.449455,-0.217358 4.948101,-3.989167 z m -1.956226,-1.85394 q 1.406437,0 2.020155,-1.21465 v -1.790011 q 0,-1.79001 -0.600932,-2.646658 -0.600932,-0.856648 -1.623796,-0.856648 -0.907791,0 -1.521509,0.97172 -0.613718,0.97172 -0.613718,2.352585 0,1.457581 0.626504,2.327014 0.626504,0.856648 1.713296,0.856648 z m 21.186064,-4.590099 q 0,1.355294 -0.677647,2.390943 -0.664862,1.035649 -1.841154,1.662153 1.329722,0.652076 2.109655,1.790011 0.779934,1.12515 0.779934,2.67223 0,2.49323 -1.726082,3.938024 -1.713296,1.444795 -4.730743,1.444795 -3.030233,0 -4.781886,-1.444795 -1.751654,-1.45758 -1.751654,-3.938024 0,-1.495937 0.767148,-2.646658 0.767147,-1.150722 2.173584,-1.815583 -1.189078,-0.626504 -1.866725,-1.662153 -0.677647,-1.035649 -0.677647,-2.390943 0,-2.4293 1.649367,-3.835737 1.649367,-1.4064372 4.449455,-1.4064372 2.82566,0 4.475027,1.4064372 1.649368,1.406437 1.649368,3.835737 z m -3.95081,8.170121 q 0,-1.150721 -0.600932,-1.764439 -0.588147,-0.626504 -1.559867,-0.626504 -0.97172,0 -1.572652,0.626504 -0.600932,0.613718 -0.600932,1.764439 0,1.112364 0.600932,1.764439 0.613718,0.63929 1.598224,0.63929 0.958934,0 1.547081,-0.63929 0.588146,-0.639289 0.588146,-1.764439 z m -2.173585,-10.087989 q -0.869433,0 -1.329722,0.57536 -0.447503,0.562575 -0.447503,1.572653 0,0.997291 0.460289,1.611009 0.460288,0.613718 1.355294,0.613718 0.882219,0 1.316936,-0.613718 0.447503,-0.613718 0.447503,-1.611009 0,-0.997292 -0.460288,-1.572653 -0.447503,-0.57536 -1.342509,-0.57536 z m 17.222453,9.205769 h -7.68426 v -3.337091 h 7.68426 z m 13.69358,-12.5300752 v 3.3882352 h -0.191787 q -2.416514,0 -3.976381,1.163507 -1.547081,1.150721 -1.905083,3.209233 1.45758,-1.432008 3.682308,-1.432008 2.416515,0 3.848523,1.764439 1.432009,1.764439 1.432009,4.628456 0,1.777225 -0.843862,3.260377 -0.831077,1.483152 -2.3398,2.327014 -1.495938,0.831077 -3.324306,0.831077 -1.981798,0 -3.541664,-0.895006 -1.559867,-0.907791 -2.4293,-2.58273 -0.869434,-1.674938 -0.895006,-3.861309 v -1.726082 q 0,-2.876803 1.227436,-5.165459 1.240222,-2.301443 3.528879,-3.605593 2.288656,-1.3041512 5.075959,-1.3041512 z m -3.88688,9.6277012 q -0.856649,0 -1.432009,0.396359 -0.575361,0.39636 -0.856648,0.97172 v 1.291365 q 0,3.528879 2.442086,3.528879 0.984506,0 1.636581,-0.88222 0.664861,-0.882219 0.664861,-2.211942 0,-1.368079 -0.677646,-2.224727 -0.664862,-0.869434 -1.777225,-0.869434 z"
     style="fill:#fe5000"
     transform="matrix(0.921855005,0,0,0.921855005,-6.8612922,-32.8172217)"
     id="path1" />
  <path
     style="fill:#fe5000"
     d="m 204.50994,2.7394154 c -2.28711,-0.5186905 -4.77927,-0.9287613 -7.38493,-0.9287613 -7.27754,0 -13.62386,2.1723982 -17.13631,5.5274109 V 3.5351478 H 155.36004 V 53.230588 H 179.9887 V 25.039449 c 0.0244,-0.373457 0.19282,-0.84333 0.31487,-1.205803 1.36324,-3.898112 9.44871,-5.562804 16.07209,-2.811913 3.59666,1.375445 5.69095,2.184602 8.18311,3.523434 z M 457.49198,54.268091 c -5.29796,0 -10.11262,-4.477826 -10.11262,-9.71477 0,-5.250369 4.64624,-9.147261 9.64154,-9.835594 3.33792,-0.482077 7.16768,-0.350268 11.10241,-0.350268 h 2.7875 c 3.23908,0 5.86549,-0.95195 5.86549,-2.123581 0,-1.182614 -2.62641,-2.12358 -5.86549,-2.12358 -3.24028,0 -5.86547,0.772544 -5.86547,1.942954 l -0.24042,1.037381 -15.04813,-0.01221 c -0.0476,-7.21529 9.51462,-12.404637 21.32977,-12.404637 11.80174,0 21.37616,5.189347 21.37616,11.608905 v 21.057618 h -13.47864 v -2.764317 c -3.66867,2.462866 -9.4487,3.910318 -16.03668,3.910318 -1.89536,0 -3.7175,0.01221 -5.45542,-0.228224 m 18.99385,-13.44446 c -1.16431,0.325859 -1.16431,0.241648 -1.94174,0.325859 l -1.69032,0.109841 c -1.51946,0.0476 -4.01771,0.252633 -4.01771,0.252633 -2.79971,0 -5.06853,1.219228 -5.06853,2.715497 0,1.49627 2.63617,2.160194 5.4371,2.160194 2.25539,-0.180627 4.15563,-0.08421 5.68974,-1.158206 1.75988,-1.219227 1.54386,-2.135785 1.59146,-4.405818 m -46.75377,0.627188 h 15.10183 v 11.741934 h -15.10183 z m 67.16002,0 h 15.10793 V 53.192748 H 496.89208 Z M 427.75323,39.05068 c -0.58459,9.786776 -10.29448,15.687644 -23.2715,15.687644 -13.81792,0 -25.01554,-7.796225 -25.01554,-17.413358 0,-9.630558 11.19762,-17.425563 25.01554,-17.425563 12.761,0 23.56685,6.480582 22.97616,15.253165 l -15.57903,0.01221 c -0.9788,-3.414815 -4.15196,-5.913074 -7.90362,-5.913074 -4.53762,0 -8.21972,3.64426 -8.21972,8.13307 0,4.501013 3.6821,8.146493 8.21972,8.146493 3.96402,0 7.27631,-2.788726 8.04764,-6.494007 z M 286.08581,53.37423 h 28.22531 l 10.46291,-10.77656 10.46168,10.77656 H 363.6978 L 342.35581,27.272504 360.02303,3.644622 h -28.45476 l -6.79424,7.879215 -6.79423,-7.879215 h -28.45476 l 17.67332,23.627882 z m 1.84135,-19.561713 -50.35815,0.02563 c 2.18461,4.077518 6.5892,6.768607 11.66993,6.768607 4.4168,0.21724 9.06304,-1.617094 12.54988,-3.691856 h 24.17219 c -1.05081,11.740714 -18.14928,18.75219 -35.91291,18.75219 -22.07182,0 -39.96847,-12.466881 -39.96847,-27.827445 C 210.07963,12.46566 227.97628,0 250.0481,0 c 20.38759,0 41.24505,14.142557 37.87906,33.812524 M 260.62451,21.625123 c -2.2261,-4.042126 -6.41346,-6.673412 -11.38557,-6.673412 -4.93549,0 -9.23758,2.691088 -11.47587,6.685616 z M 77.149426,30.819859 C 76.220665,46.47089 60.701443,55.896413 39.969685,55.896413 17.895435,55.896413 -4.78508e-7,43.430753 -4.78508e-7,28.056764 -4.78508e-7,12.682775 17.895435,0.22931912 39.969685,0.22931912 c 20.381489,0 37.644732,10.35306388 36.715971,24.37601688 l -24.898369,0.02441 c -1.563394,-5.454184 -6.625814,-9.448712 -12.635302,-9.448712 -7.245803,0 -13.125923,5.816657 -13.125923,12.996555 0,7.179899 5.88012,12.996555 13.125923,12.996555 6.339009,0 11.630873,-4.439991 12.863526,-10.354284 z m 48.467604,18.86203 c -4.78049,3.873703 -11.52958,5.985079 -19.17446,5.985079 -14.439128,0 -26.142007,-8.41011 -26.142007,-19.090254 V 3.6807473 H 104.70099 V 28.056764 c 0,5.755634 4.70727,10.824157 10.51417,10.824157 5.80444,0 10.40187,-4.38019 10.40187,-10.12362 V 3.6807473 h 24.51149 V 53.373745 h -24.51149 z"
     id="path2" />
</svg>
