<?xml version="1.0" encoding="UTF-8" standalone="no"?>
<!-- Created with Inkscape (http://www.inkscape.org/) -->

<svg
   version="1.1"
   id="svg2"
   width="512"
   height="76.903183"
   viewBox="0 0 512 76.903177"
   sodipodi:docname="logo_mcl.svg"
   inkscape:version="1.3 (0e150ed6c4, 2023-07-21)"
   xmlns:inkscape="http://www.inkscape.org/namespaces/inkscape"
   xmlns:sodipodi="http://sodipodi.sourceforge.net/DTD/sodipodi-0.dtd"
   xmlns="http://www.w3.org/2000/svg"
  >
  <sodipodi:namedview
     id="namedview2646"
     pagecolor="#505050"
     bordercolor="#ffffff"
     borderopacity="1"
     inkscape:showpageshadow="0"
     inkscape:pageopacity="0"
     inkscape:pagecheckerboard="1"
     inkscape:deskcolor="#505050"
     showgrid="false"
     inkscape:zoom="2.33984377"
     inkscape:cx="255.572618"
     inkscape:cy="84.4073447"
     inkscape:window-width="1920"
     inkscape:window-height="1009"
     inkscape:window-x="1912"
     inkscape:window-y="-8"
     inkscape:window-maximized="1"
     inkscape:current-layer="svg2" />
  <defs
     id="defs1" />
  <path
     style="fill:#946037"
     d="m 504.62968,49.282608 h 7.37034 v 7.516569 h -7.37034 z m 0,0 h 7.37034 v 7.516569 h -7.37034 z m -64.69771,0 h 7.36864 v 7.516569 h -7.36864 z m 0,0 h 7.36864 v 7.516569 h -7.36864 z m -5.74371,-7.045229 c -3.08187,8.542399 -11.45518,14.670725 -21.3032,14.670725 -12.46662,0 -22.56919,-9.815982 -22.56919,-21.919075 0,-12.107189 10.10257,-21.919075 22.56919,-21.919075 9.65968,0 17.90908,5.899004 21.1233,14.189554 l -8.0746,-0.03072 c -2.63893,-4.271185 -7.56211,-6.947349 -13.0487,-6.947349 -8.33598,0 -15.09196,6.586997 -15.09196,14.707604 0,8.116497 6.75598,14.703478 15.09196,14.703478 5.67157,0 10.61342,-3.05085 13.19125,-7.563672 z m 4.9e-4,-4.1e-4 c -3.08186,8.544447 -11.45513,14.670725 -21.30318,14.670725 -12.4683,0 -22.56921,-9.815982 -22.56921,-21.919075 0,-12.107189 10.10091,-21.919088 22.56921,-21.919088 9.65796,0 17.90737,5.899018 21.12159,14.189567 l -8.0729,-0.03072 c -2.64062,-4.269151 -7.56209,-6.9453 -13.04869,-6.9453 -8.33597,0 -15.09366,6.584948 -15.09366,14.705541 0,8.116511 6.75769,14.703494 15.09366,14.703494 5.67156,0 10.61342,-3.050852 13.18953,-7.563661 z M 345.85063,0 h 7.37036 v 56.801225 h -7.37036 z m 0,0 h 7.37036 v 56.801225 h -7.37036 z m -56.15978,42.507236 c -3.08355,8.5424 -11.45855,14.670726 -21.30998,14.670726 -12.4632,0 -22.5675,-9.815968 -22.5675,-21.919061 0,-12.103107 10.1043,-21.914993 22.5675,-21.914993 9.66814,0 17.91077,5.894923 21.1284,14.191602 l -8.0729,-0.03687 c -2.64403,-4.265055 -7.56552,-6.93917 -13.0555,-6.93917 -8.33085,0 -15.09023,6.578804 -15.09023,14.699411 0,8.120606 6.75938,14.703493 15.09023,14.703493 5.67666,0 10.62191,-3.050851 13.19803,-7.559578 z m 6.9e-4,0 c -3.08527,8.5424 -11.46026,14.670726 -21.30997,14.670726 -12.46323,0 -22.56921,-9.815968 -22.56921,-21.919061 0,-12.103107 10.10598,-21.914993 22.56921,-21.914993 9.66813,0 17.91077,5.894923 21.12837,14.189568 l -8.0729,-0.03481 c -2.64403,-4.265041 -7.56719,-6.939156 -13.05547,-6.939156 -8.33258,0 -15.09029,6.578803 -15.09029,14.699397 0,8.120607 6.75771,14.703493 15.09029,14.703493 5.67663,0 10.62018,-3.050852 13.19632,-7.559565 z M 179.19392,13.069531 v 3.540241 c 2.44547,-2.995583 6.94946,-3.540241 11.42291,-3.540241 v 7.078406 c -5.11663,0.628613 -11.42291,2.995569 -11.42291,11.980255 v 24.779502 h -7.33978 l -0.12049,-43.838163 z m 3.2e-4,0 v 3.542289 c 2.44548,-2.997631 6.94779,-3.542289 11.42291,-3.542289 v 7.078406 c -5.11662,0.628613 -11.42291,2.995569 -11.42291,11.980255 v 24.779502 h -7.33977 l -0.12049,-43.838163 z m -26.37604,0 v 3.540241 c 2.44717,-2.995583 6.95116,-3.540241 11.42123,-3.540241 v 7.078406 c -5.12004,0.628613 -11.42123,2.995569 -11.42123,11.980255 v 24.779502 h -7.34317 l -0.11711,-43.838163 z m 3.6e-4,0 v 3.542289 c 2.44715,-2.997631 6.94946,-3.542289 11.42121,-3.542289 v 7.078406 c -5.12004,0.628613 -11.42121,2.995569 -11.42121,11.980255 v 24.779502 h -7.34319 L 145.35826,13.069531 Z M 6.845876e-4,56.908104 38.883726,4.096e-4 h 7.339772 V 44.108841 L 76.952174,4.096e-4 h 7.071638 V 56.908104 H 76.952174 V 13.614599 L 46.223498,56.908104 H 38.883726 V 13.888977 L 9.2462707,56.908104 Z M 1.8924e-6,56.907694 38.883043,0 h 7.341479 V 44.108432 L 76.951487,0 h 7.07164 v 56.907694 h -7.07164 V 13.614189 L 46.224522,56.907694 H 38.883043 V 13.888567 L 9.2455887,56.907694 Z M 491.72335,51.185391 c -3.8082,3.814605 -9.30669,5.722917 -14.95618,5.722917 -12.46661,0 -22.57089,-9.818016 -22.57089,-21.919075 0,-12.107188 10.10428,-21.919074 22.57089,-21.919074 5.72418,0 10.94942,2.065981 14.92733,5.479247 l -0.001,-5.366634 h 7.37034 V 56.908308 H 491.6935 Z M 461.67521,34.989233 c 0,8.116511 6.75601,14.703494 15.09196,14.703494 8.33427,0 15.09196,-6.586983 15.09196,-14.703494 0,-8.120606 -6.75769,-14.707588 -15.09196,-14.707588 -8.33595,0 -15.09196,6.586982 -15.09196,14.707588 m 30.04799,16.195543 c -3.80822,3.816653 -9.3067,5.722918 -14.95619,5.722918 -12.46661,0 -22.5709,-9.815982 -22.5709,-21.919075 0,-12.107189 10.10429,-21.919088 22.5709,-21.919088 5.72418,0 10.94942,2.065995 14.92904,5.479273 l -0.001,-5.366647 h 7.36862 v 43.725537 h -7.36862 z M 461.67675,34.988619 c 0,8.116511 6.75428,14.703494 15.09026,14.703494 8.33426,0 15.09195,-6.586983 15.09195,-14.703494 0,-8.120607 -6.75769,-14.705527 -15.09195,-14.705527 -8.33598,0 -15.09026,6.58492 -15.09026,14.705527 m -267.79852,0.270282 c 0,-12.103107 10.106,-21.914993 22.56751,-21.914993 12.4666,0 22.56921,9.811886 22.56921,21.914993 0,12.103093 -10.10261,21.919061 -22.56921,21.919061 -12.46151,0 -22.56751,-9.815968 -22.56751,-21.919061 m 7.47725,0 c 0,8.120607 6.7577,14.703493 15.09026,14.703493 8.33596,0 15.09197,-6.582886 15.09197,-14.703493 0,-8.120607 -6.75601,-14.699397 -15.09197,-14.699397 -8.33256,0 -15.09026,6.57879 -15.09026,14.699397 m -7.47657,0 c 0,-12.103107 10.10429,-21.914993 22.56751,-21.914993 12.46491,0 22.5692,9.811886 22.5692,21.914993 0,12.103093 -10.10429,21.919061 -22.5692,21.919061 -12.46322,0 -22.56751,-9.815968 -22.56751,-21.919061 m 7.47557,0 c 0,8.120607 6.75938,14.703493 15.09194,14.703493 8.33596,0 15.09196,-6.582886 15.09196,-14.703493 0,-8.120607 -6.756,-14.699397 -15.09196,-14.699397 -8.33256,0 -15.09194,6.57879 -15.09194,14.699397 M 94.083991,34.988824 c 0,-12.107202 10.102589,-21.919075 22.569199,-21.919075 12.46659,0 22.5709,9.811873 22.5709,21.919075 0,12.103106 -10.10431,21.919088 -22.5709,21.919088 -12.46661,0 -22.569199,-9.815982 -22.569199,-21.919088 m 7.477249,0 c 0,8.116497 6.75598,14.703493 15.09195,14.703493 8.33595,0 15.09025,-6.586996 15.09025,-14.703493 0,-8.120606 -6.7543,-14.707589 -15.09025,-14.707589 -8.33597,0 -15.09195,6.586983 -15.09195,14.707589 m -7.477925,-2.05e-4 c 0,-12.107189 10.102585,-21.919088 22.569195,-21.919088 12.4666,0 22.5726,9.811899 22.5726,21.919088 0,12.103093 -10.106,21.919075 -22.5726,21.919075 -12.46661,0 -22.569195,-9.815982 -22.569195,-21.919075 m 7.477225,0 c 0,8.116511 6.7577,14.703494 15.09197,14.703494 8.33596,0 15.09196,-6.586983 15.09196,-14.703494 0,-8.120607 -6.756,-14.705527 -15.09196,-14.705527 -8.33427,0 -15.09197,6.58492 -15.09197,14.705527 m 210.33039,12.390578 c 2.3776,1.521336 4.55661,2.311686 7.61302,2.311686 4.26811,0 8.12213,-1.726081 10.86967,-4.498473 l 0.008,8.450253 c -3.46371,2.096702 -6.49465,3.265851 -10.87647,3.265851 -12.46491,0 -22.5692,-9.818031 -22.5692,-21.919075 0,-12.107189 10.10429,-21.919075 22.5692,-21.919075 7.98298,0 14.47592,3.728588 18.49117,9.803694 z m 16.31726,-24.505139 c -2.3844,-1.42306 -5.70383,-2.592209 -8.70424,-2.592209 -8.33255,0 -15.09025,6.586983 -15.09025,14.70759 0,2.078269 0.409,4.758514 2.58294,7.485863 z m -1.9e-4,-8.2e-4 c -2.38437,-1.420998 -5.70212,-2.590146 -8.70422,-2.590146 -8.33255,0 -15.09024,6.58492 -15.09024,14.705527 0,2.078269 0.40898,4.760562 2.58291,7.485877 z m -16.31722,24.505139 c 2.37926,1.521337 4.55659,2.313736 7.613,2.313736 4.2698,0 8.12384,-1.72813 10.86967,-4.498474 l 0.008,8.448205 c -3.46201,2.096701 -6.49468,3.26585 -10.87647,3.26585 -12.46491,0 -22.56919,-9.815982 -22.56919,-21.919075 0,-12.107189 10.10428,-21.919088 22.56919,-21.919088 7.98297,0 14.47593,3.728602 18.49116,9.803707 z"
     id="path1" />
  <path
     d="m 209.305341,102.523227 h -2.4293 v 6.571896 h -4.487813 V 90.479011 h 7.326258 q 3.31152,0 5.178246,1.470366 1.866725,1.470366 1.866725,4.1553822 0,1.9434403 -0.792719,3.2220194 -0.779933,1.2785794 -2.454872,2.0712984 l 3.886881,7.505259 v 0.191787 h -4.807458 z m -2.4293,-3.46495 h 2.838445 q 1.27858,0 1.917869,-0.6648611 0.652075,-0.677647 0.652075,-1.8795114 0,-1.2018644 -0.652075,-1.8795113 -0.652075,-0.6904327 -1.917869,-0.6904327 h -2.838445 z m 17.375891,10.036846 h -4.475027 V 90.479011 h 4.475027 z m 14.844303,-7.415759 h -7.236758 v 7.415759 h -4.487812 V 90.479011 h 12.45336 v 3.4649495 h -7.965548 v 4.2832401 h 7.236758 z m 5.07596,3.234805 q 1.022864,0 1.700511,0.613718 0.677647,0.600933 0.677647,1.547081 0,0.946149 -0.677647,1.559867 -0.677647,0.600932 -1.700511,0.600932 -1.035649,0 -1.713296,-0.613718 -0.664861,-0.613718 -0.664861,-1.547081 0,-0.933363 0.664861,-1.547081 0.677647,-0.613718 1.713296,-0.613718 z m 0,-10.2030611 q 1.022864,0 1.700511,0.613718 0.677647,0.6009322 0.677647,1.5470808 0,0.9461486 -0.677647,1.5598665 -0.677647,0.6009322 -1.700511,0.6009322 -1.035649,0 -1.713296,-0.6137179 -0.664861,-0.613718 -0.664861,-1.5470808 0,-0.9333628 0.664861,-1.5470808 0.677647,-0.613718 1.713296,-0.613718 z m 19.31933,-4.2320969 h 4.475027 v 12.773006 q 0,1.777225 -0.831076,3.170876 -0.818291,1.393651 -2.301443,2.160799 -1.470366,0.767147 -3.285948,0.767147 -3.043019,0 -4.730743,-1.534295 -1.687724,-1.534295 -1.687724,-4.347169 h 4.500598 q 0,1.278579 0.434717,1.85394 0.447503,0.57536 1.483152,0.57536 0.933363,0 1.432008,-0.690432 0.511432,-0.703219 0.511432,-1.956226 z m 15.521951,12.261574 h -7.684261 v -3.3370916 h 7.684261 z m 16.212381,-1.253008 q 0,3.771809 -1.700511,5.817535 -1.687724,2.045727 -4.7691,2.045727 -3.106947,0 -4.807457,-2.058512 -1.700511,-2.058513 -1.700511,-5.80475 v -3.4010201 q 0,-3.7718085 1.687725,-5.8175351 1.70051,-2.0457266 4.794672,-2.0457266 3.094161,0 4.794671,2.0585124 1.700511,2.0585124 1.700511,5.8175351 z m -4.308812,-3.9508092 q 0,-2.0073692 -0.524218,-2.9918751 -0.524217,-0.9972918 -1.662152,-0.9972918 -1.112364,0 -1.623796,0.920577 -0.498646,0.920577 -0.537003,2.7873025 v 4.7563146 q 0,2.084084 0.524217,3.055804 0.524218,0.958934 1.662153,0.958934 1.099578,0 1.623796,-0.933362 0.524217,-0.946149 0.537003,-2.953518 z m 16.953966,-7.3262584 v 3.3882347 h -0.191787 q -2.416514,0 -3.976381,1.163507 -1.54708,1.1507212 -1.905083,3.2092337 1.457581,-1.4320087 3.682308,-1.4320087 2.416515,0 3.848524,1.7644392 1.432008,1.7644397 1.432008,4.6284567 0,1.777225 -0.843862,3.260377 -0.831076,1.483151 -2.3398,2.327014 -1.495937,0.831076 -3.324306,0.831076 -1.981797,0 -3.541664,-0.895005 -1.559866,-0.907791 -2.4293,-2.58273 -0.869434,-1.674939 -0.895006,-3.861309 v -1.726082 q 0,-2.8768031 1.227436,-5.1654597 1.240222,-2.3014425 3.528879,-3.6055932 2.288656,-1.3041507 5.075959,-1.3041507 z m -3.88688,9.6277009 q -0.856648,0 -1.432009,0.3963597 -0.57536,0.396359 -0.856648,0.97172 v 1.291365 q 0,3.528878 2.442086,3.528878 0.984506,0 1.636582,-0.882219 0.664861,-0.88222 0.664861,-2.211942 0,-1.36808 -0.677647,-2.224728 -0.664861,-0.8694337 -1.777225,-0.8694337 z m 21.569629,1.6493667 q 0,3.771809 -1.70051,5.817535 -1.687724,2.045727 -4.7691,2.045727 -3.106947,0 -4.807458,-2.058512 -1.70051,-2.058513 -1.70051,-5.80475 v -3.4010201 q 0,-3.7718085 1.687724,-5.8175351 1.700511,-2.0457266 4.794672,-2.0457266 3.094162,0 4.794672,2.0585124 1.70051,2.0585124 1.70051,5.8175351 z m -4.308811,-3.9508092 q 0,-2.0073692 -0.524218,-2.9918751 -0.524217,-0.9972918 -1.662153,-0.9972918 -1.112364,0 -1.623795,0.920577 -0.498646,0.920577 -0.537003,2.7873025 v 4.7563146 q 0,2.084084 0.524217,3.055804 0.524217,0.958934 1.662153,0.958934 1.099578,0 1.623795,-0.933362 0.524218,-0.946149 0.537004,-2.953518 z m 19.472759,3.9508092 q 0,3.771809 -1.70051,5.817535 -1.687724,2.045727 -4.7691,2.045727 -3.106947,0 -4.807458,-2.058512 -1.70051,-2.058513 -1.70051,-5.80475 v -3.4010201 q 0,-3.7718085 1.687725,-5.8175351 1.70051,-2.0457266 4.794671,-2.0457266 3.094162,0 4.794672,2.0585124 1.70051,2.0585124 1.70051,5.8175351 z m -4.308811,-3.9508092 q 0,-2.0073692 -0.524218,-2.9918751 -0.524217,-0.9972918 -1.662153,-0.9972918 -1.112364,0 -1.623795,0.920577 -0.498646,0.920577 -0.537003,2.7873025 v 4.7563146 q 0,2.084084 0.524217,3.055804 0.524217,0.958934 1.662153,0.958934 1.099578,0 1.623795,-0.933362 0.524218,-0.946149 0.537004,-2.953518 z m 19.472759,3.9508092 q 0,3.771809 -1.70051,5.817535 -1.687724,2.045727 -4.7691,2.045727 -3.106947,0 -4.807458,-2.058512 -1.70051,-2.058513 -1.70051,-5.80475 v -3.4010201 q 0,-3.7718085 1.687725,-5.8175351 1.70051,-2.0457266 4.794671,-2.0457266 3.094162,0 4.794672,2.0585124 1.70051,2.0585124 1.70051,5.8175351 z m -4.308811,-3.9508092 q 0,-2.0073692 -0.524218,-2.9918751 -0.524217,-0.9972918 -1.662153,-0.9972918 -1.112363,0 -1.623795,0.920577 -0.498646,0.920577 -0.537003,2.7873025 v 4.7563146 q 0,2.084084 0.524217,3.055804 0.524218,0.958934 1.662153,0.958934 1.099578,0 1.623795,-0.933362 0.524218,-0.946149 0.537004,-2.953518 z m 10.484356,0.4475027 h 2.032941 q 2.416514,0 2.416514,-2.3653714 0,-0.9205769 -0.57536,-1.4959376 -0.575361,-0.5881464 -1.623796,-0.5881464 -0.856648,0 -1.495938,0.4986459 -0.626503,0.4986459 -0.626503,1.2402218 h -4.308812 q 0,-1.470366 0.818291,-2.6210873 0.81829,-1.1507212 2.263085,-1.7900108 1.45758,-0.6520753 3.196448,-0.6520753 3.106947,0 4.884172,1.4192228 1.777225,1.4192229 1.777225,3.8996664 0,1.2018644 -0.741576,2.2758709 -0.72879,1.0612207 -2.135227,1.7260818 1.483152,0.5370037 2.327014,1.6365817 0.843862,1.086792 0.843862,2.697802 0,2.493229 -1.917869,3.989167 -1.917868,1.495937 -5.037601,1.495937 -1.828369,0 -3.401021,-0.690433 -1.559867,-0.703218 -2.365371,-1.930654 -0.805505,-1.240222 -0.805505,-2.812874 h 4.334383 q 0,0.856648 0.690433,1.483152 0.690433,0.626503 1.70051,0.626503 1.137935,0 1.815582,-0.626503 0.677647,-0.63929 0.677647,-1.623796 0,-1.406437 -0.703218,-1.994583 -0.703219,-0.588147 -1.94344,-0.588147 h -2.09687 z m 24.165137,-5.2038171 -6.95547,16.3146696 h -4.551742 l 6.968256,-15.2918062 h -8.873339 V 90.479011 h 13.412295 z m 15.163956,0 -6.955471,16.3146696 h -4.551741 l 6.968256,-15.2918062 h -8.873339 V 90.479011 h 13.412295 z m 10.714485,9.9601316 h -7.684261 v -3.3370916 h 7.684261 z m 13.69358,-12.5300756 v 3.3882347 h -0.191787 q -2.416515,0 -3.976381,1.163507 -1.547081,1.1507212 -1.905083,3.2092337 1.45758,-1.4320087 3.682308,-1.4320087 2.416514,0 3.848523,1.7644392 1.432009,1.7644397 1.432009,4.6284567 0,1.777225 -0.843863,3.260377 -0.831076,1.483151 -2.339799,2.327014 -1.495938,0.831076 -3.324306,0.831076 -1.981798,0 -3.541664,-0.895005 -1.559867,-0.907791 -2.429301,-2.58273 -0.869434,-1.674939 -0.895005,-3.861309 v -1.726082 q 0,-2.8768031 1.227436,-5.1654597 1.240222,-2.3014425 3.528878,-3.6055932 2.288657,-1.3041507 5.075959,-1.3041507 z m -3.886881,9.6277009 q -0.856648,0 -1.432008,0.3963597 -0.575361,0.396359 -0.856648,0.97172 v 1.291365 q 0,3.528878 2.442086,3.528878 0.984506,0 1.636581,-0.882219 0.664861,-0.88222 0.664861,-2.211942 0,-1.36808 -0.677647,-2.224728 -0.664861,-0.8694337 -1.777225,-0.8694337 z"
     style="fill:#946037"
     transform="matrix(0.92078552,0,0,0.92078552,117.274028,-23.7854877)"
     id="path2" />
</svg>
