<svg class="winding-icon" width="20mm" height="20mm" viewBox="0 0 153.12393 153.12299" version="1.1" id="wd-1" xmlns="http://www.w3.org/2000/svg"><g transform="translate(1052.0144,-1163.4478)"><path d="m -1023.903,1163.4478 c -15.5257,0 -28.1114,12.5859 -28.1114,28.1115 v 96.8927 c 0,15.5257 12.5857,28.112 28.1114,28.112 h 96.25618 c 8.95848,0.1966 17.85881,-3.882 23.47919,-11.7109 9.05419,-12.6122 6.16915,-30.1769 -6.44302,-39.2312 -0.78831,-0.5659 -1.5959,-1.0848 -2.41949,-1.558 -3.83148,-2.201 -7.99971,-3.3107 -12.3672,-3.2768 v -5e-4 h -25.739 v 25.4289 c -0.012,4.8154 1.36216,9.6113 4.17494,13.6379 6.63409,9.4969 20.18261,12.6018 29.78319,5.8803 8.19159,-5.7352 10.86888,-17.4374 5.06429,-25.709 -4.93489,-7.0323 -14.99655,-9.3293 -22.08754,-4.3414 -3.00229,2.1118 -2.00166,3.8562 0.62684,1.9885 6.08639,-4.3246 14.48408,-2.4206 18.65467,3.4644 4.82659,6.8107 2.6893,16.2172 -3.90828,20.8809 -7.63129,5.3943 -18.17976,2.9924 -23.40116,-4.4126 -6.03518,-8.5593 -3.33431,-20.3987 4.98368,-26.2496 9.60708,-6.7577 22.90282,-3.7187 29.46331,5.6301 6.15119,8.7655 5.04666,20.269 -1.22163,28.2221 -1.4466,1.8353 -3.16843,3.4818 -5.13922,4.8617 -6.18289,4.3288 -13.57902,5.1812 -20.43699,3.6665 -6.0264,-1.331 -11.63726,-4.4297 -15.64556,-9.43 -3.08829,-4.5136 -4.89789,-9.9713 -4.89789,-15.8533 v -96.8927 c 0,-9.8575 5.07422,-18.5296 12.75271,-23.548 a 2.4255131,2.4255131 0 0 0 -0.8909,-4.5635 z m 90.23226,11.3259 -3.95531,7.6342 h 7.22074 v 25.7085 h 8.37004 v -33.3427 z m -0.47129,40.6999 a 3.999236,3.999236 0 0 0 -4.23178,3.9925 v 25.5385 a 3.999236,3.999236 0 0 0 5.99912,3.4633 l 22.11648,-12.7692 a 3.999236,3.999236 0 0 0 0,-6.9267 l -22.11648,-12.7693 a 3.999236,3.999236 0 0 0 -1.76734,-0.5291 z m -88.13467,11.2101 h 3.422 v 20.5595 l 14.3221,-20.5595 h 3.2965 v 26.5255 h -3.2965 v -20.1796 l -14.3221,20.1796 h -3.422 v -20.052 l -13.8147,20.052 h -4.3098 z m 48.92725,0 h 3.43493 v 26.4759 h -3.43493 z m -13.78314,6.2198 v 5e-4 c 4.50659,0 8.34868,2.7478 9.84849,6.6141 l -3.76308,-0.016 c -1.23239,-1.988 -3.52721,-3.2345 -6.08541,-3.2345 -3.884,0 -7.03368,3.0662 -7.03368,6.8513 0,3.7852 3.14968,6.8538 7.03368,6.8538 2.646,0 4.95025,-1.4222 6.15104,-3.5238 l 3.78169,0.048 c -1.4381,3.9818 -5.34164,6.8383 -9.93273,6.8383 -5.8092,0 -10.51977,-4.5755 -10.51977,-10.2169 0,-5.6415 4.71057,-10.2149 10.51977,-10.2149 z" /></g></svg>