<svg class="winding-icon" width="20mm" height="20mm" viewBox="0 0 153.12396 153.12299" version="1.1" id="wd-3" xmlns="http://www.w3.org/2000/svg"><g transform="translate(666.39144,-1163.4478)"><path d="m -638.27997,1163.4478 c -15.52568,0 -28.11147,12.5859 -28.11147,28.1115 v 96.8927 c 0,15.5257 12.58579,28.112 28.11147,28.112 h 96.25614 c 8.95848,0.1966 17.85879,-3.882 23.47918,-11.7109 9.05419,-12.6122 6.16916,-30.1769 -6.44301,-39.2312 -0.78831,-0.5659 -1.5959,-1.0848 -2.41949,-1.558 -3.8315,-2.201 -7.99971,-3.3107 -12.36721,-3.2768 v -5e-4 h -25.739 v 25.4289 c -0.012,4.8154 1.36216,9.6113 4.17494,13.6379 6.63409,9.4969 20.18262,12.6018 29.7832,5.8803 8.19158,-5.7352 10.86888,-17.4374 5.06429,-25.709 -4.93489,-7.0323 -14.99656,-9.3293 -22.08754,-4.3414 -3.0023,2.1118 -2.00166,3.8562 0.62683,1.9885 6.08639,-4.3246 14.48408,-2.4206 18.65468,3.4644 4.82659,6.8107 2.6893,16.2172 -3.90829,20.8809 -7.63128,5.3943 -18.17977,2.9924 -23.40116,-4.4126 -6.03519,-8.5593 -3.3343,-20.3987 4.98368,-26.2496 9.60708,-6.7577 22.90283,-3.7187 29.46332,5.6301 6.15118,8.7655 5.04665,20.269 -1.22163,28.2221 -1.4466,1.8353 -3.16844,3.4818 -5.13922,4.8617 -6.18291,4.3288 -13.57902,5.1812 -20.437,3.6665 -6.02638,-1.331 -11.63727,-4.4297 -15.64556,-9.43 -3.08829,-4.5136 -4.89789,-9.9713 -4.89789,-15.8533 v -96.8927 c 0,-9.8575 5.07423,-18.5296 12.75271,-23.548 a 2.4255131,2.4255131 0 0 0 -0.8909,-4.5635 z m 97.06177,10.6593 c -3.89376,0 -6.891,0.8661 -8.99118,2.5983 -2.14618,1.7783 -3.24219,4.2236 -3.28817,7.3354 h 8.14007 c 0.046,-1.1957 0.39122,-2.085 1.03508,-2.6675 0.62852,-0.6286 1.52522,-0.9426 2.69027,-0.9426 1.10375,0 1.99303,0.3294 2.66754,0.9886 0.70517,0.5978 1.0573,1.4259 1.0573,2.4836 0,1.2877 -0.41346,2.261 -1.24127,2.9202 -0.82781,0.6898 -2.01633,1.0351 -3.56464,1.0351 h -0.48265 v 5.4265 c 0.18396,0 0.32935,-0.015 0.43666,-0.046 h 0.5979 c 1.70161,0 2.95886,0.3601 3.77134,1.0806 0.81248,0.7205 1.21853,1.8631 1.21853,3.4267 0,1.4104 -0.37538,2.4678 -1.12654,3.1729 -0.79715,0.7205 -1.87782,1.0811 -3.24218,1.0811 -1.33369,0 -2.35304,-0.376 -3.05821,-1.1271 -0.68984,-0.7359 -1.03508,-1.8546 -1.03508,-3.3569 v -0.5519 h -8.53075 v 0.3219 c 0,3.6178 1.14201,6.4766 3.42615,8.5768 2.29947,2.1002 5.41144,3.1502 9.33586,3.1502 3.74047,0 6.76786,-1.0193 9.08265,-3.0582 2.33013,-2.0235 3.4954,-4.6756 3.4954,-7.9561 0,-2.2535 -0.58264,-4.1008 -1.7477,-5.5418 -1.16507,-1.4563 -2.79771,-2.3763 -4.89789,-2.7595 1.7016,-0.4905 3.02019,-1.3487 3.95531,-2.5751 0.90446,-1.2111 1.35651,-2.6597 1.35651,-4.346 0,-2.6981 -0.98869,-4.8139 -2.96623,-6.3469 -1.96222,-1.5483 -4.66021,-2.3223 -8.09408,-2.3223 z m -90.05497,29.0716 h 26.47591 v 3.4349 h -26.47591 z m 19.81327,7.2848 c 3.98178,1.4381 6.83834,5.3423 6.83834,9.9333 0,5.8093 -4.57546,10.5197 -10.21695,10.5197 -5.64148,0 -10.21488,-4.7103 -10.21488,-10.5197 h 5.2e-4 c 0,-4.5065 2.74777,-8.3486 6.61406,-9.8485 l -0.016,3.7631 c -1.98799,1.2324 -3.23442,3.5272 -3.23442,6.0854 0,3.884 3.06616,7.0336 6.85126,7.0336 3.78519,0 6.85384,-3.1496 6.85384,-7.0336 0,-2.646 -1.42222,-4.9508 -3.52381,-6.1516 z m 70.19726,3.0298 a 3.999236,3.999236 0 0 0 -0.58084,0.025 3.999236,3.999236 0 0 0 -2.9993,1.9725 l -12.76925,22.1165 a 3.999236,3.999236 0 0 0 3.46387,5.9991 h 25.53798 a 3.999236,3.999236 0 0 0 3.46335,-5.9991 l -12.76873,-22.1165 a 3.999236,3.999236 0 0 0 -3.34708,-1.9978 z m -90.01053,21.007 h 26.52552 v 3.2964 h -20.17965 l 20.17965,14.3222 v 3.422 h -20.05201 l 20.05201,13.8146 v 4.3099 l -26.52552,-18.1245 v -3.422 h 20.55947 l -20.55947,-14.3222 z" /></g></svg>