<svg class="winding-icon" width="20mm" height="20mm" viewBox="0 0 153.12093 153.12045" version="1.1" id="wd-5" xmlns="http://www.w3.org/2000/svg"><g transform="translate(1052.0129,-1356.2597)"><path d="m -1007.659,1356.2597 c -2.3983,0.2325 -3.0244,3.4425 -0.8894,4.5594 7.6821,5.0181 12.75896,13.6931 12.75896,23.5536 v 64.4994 h 66.63831 c 6.32969,0 12.20327,1.9465 17.06046,5.27 5.38089,4.3134 8.71478,10.3517 10.14718,16.8367 1.6299,7.3801 0.71341,15.3393 -3.94498,21.993 -1.48489,2.1207 -3.25724,3.9737 -5.23223,5.5304 -8.55849,6.7454 -20.93746,7.9345 -30.37024,1.3151 -10.06058,-7.06 -13.33115,-21.3686 -6.05907,-31.7071 6.29629,-8.9512 19.03711,-11.8571 28.24789,-5.3624 7.96869,5.6188 10.55344,16.9702 4.74855,25.1824 -5.01868,7.0997 -15.14128,9.3994 -22.47046,4.2054 -6.33299,-4.488 -8.38183,-13.5255 -3.72794,-20.0752 2.0098,-2.8287 0.13258,-3.9047 -2.13992,-0.6739 -5.36759,7.6309 -2.89562,18.4585 4.67206,23.7691 8.90139,6.2464 21.49433,3.366 27.66602,-5.4493 7.23338,-10.3314 3.892,-24.9118 -6.32778,-32.0507 -3.325,-2.3228 -7.13783,-3.731 -11.07323,-4.2561 0,0 -1.46493,-0.2439 -3.61373,-0.2439 h -92.33235 c -15.5257,0 -28.1119,12.5862 -28.112,28.112 10e-5,15.5257 12.5863,28.1119 28.112,28.1119 h 94.84279 c 0.024,0 0.0489,10e-5 0.0729,0 h 1.80196 c 12.48648,0.085 23.94545,-8.2124 27.32805,-20.8364 0.7497,-2.7979 1.04643,-5.6095 0.94103,-8.3597 0.021,-0.5808 0.0249,-1.1626 0.0119,-1.7446 v -29.5667 h 0.0103 v -64.4994 c -10e-5,-15.5263 -12.58664,-28.113 -28.11302,-28.113 z m -24.1246,11.3254 -2.7828,17.7059 1.127,0.6671 c 0.9658,-0.9658 1.9392,-1.6557 2.9203,-2.0696 1.1037,-0.4445 2.3303,-0.6671 3.6793,-0.6671 1.9929,0 3.6256,0.5673 4.8979,1.7017 1.2571,1.1191 1.8852,2.5751 1.8852,4.3687 0,1.8856 -0.5821,3.3194 -1.7472,4.3005 -1.1651,1.0271 -2.813,1.5405 -4.9439,1.5405 -1.6096,0 -3.0968,-0.3606 -4.4612,-1.0811 -1.441,-0.7511 -2.5449,-1.7245 -3.3114,-2.9202 l -0.7126,-0.138 -0.5979,8.1401 c 1.3643,0.9044 2.9203,1.5637 4.6679,1.9776 1.7016,0.4753 3.5949,0.7132 5.6798,0.7132 4.2616,0 7.6417,-1.0812 10.1404,-3.2427 2.4375,-2.1922 3.6561,-5.1429 3.6561,-8.8527 0,-3.5412 -0.9887,-6.3238 -2.9662,-8.3473 -1.9929,-2.0389 -4.6909,-3.0582 -8.0941,-3.0582 -0.4292,0 -1.1192,0.031 -2.0696,0.092 -0.3373,0.046 -1.0267,0.1687 -2.0691,0.368 l 0.6666,-4.3228 h 12.762 v -6.875 z m 65.73447,27.6118 h 3.42201 v 20.5594 l 14.32264,-20.5594 h 3.29592 v 26.5255 h -3.29592 v -20.1797 l -14.32264,20.1797 h -3.42201 v -20.052 l -13.81415,20.052 h -4.30981 z m 48.92776,0 h 3.43493 v 26.4759 h -3.43493 z m -13.78314,6.2197 c 4.50641,0 8.3487,2.7478 9.8485,6.6141 l -3.76308,-0.016 c -1.2324,-1.988 -3.52732,-3.2339 -6.08542,-3.2339 -3.88399,0 -7.03368,3.066 -7.03368,6.8512 0,3.7851 3.14969,6.8534 7.03368,6.8534 2.6459,0 4.95025,-1.4217 6.15105,-3.5233 l 3.78168,0.048 c -1.4381,3.9817 -5.34163,6.8384 -9.93273,6.8384 -5.80938,0 -10.51977,-4.576 -10.51977,-10.2175 0,-5.6414 4.71039,-10.2144 10.51977,-10.2144 z m -100.13189,6.8621 a 3.999236,3.999236 0 0 0 -4.2318,3.992 v 25.5391 a 3.999236,3.999236 0 0 0 5.9991,3.4628 l 22.1165,-12.7693 a 3.999236,3.999236 0 0 0 0,-6.9261 l -22.1165,-12.7698 a 3.999236,3.999236 0 0 0 -1.7673,-0.5287 z" /></g></svg>