<svg class="winding-icon" width="20mm" height="20mm" viewBox="0 0 153.1209 153.12045" version="1.1" id="wd-7" xmlns="http://www.w3.org/2000/svg"><g transform="translate(666.38992,-1356.2597)"><path d="m -622.0361,1356.2597 c -2.3983,0.2325 -3.02435,3.4425 -0.88935,4.5594 h -0.002 c 7.68208,5.0181 12.75891,13.6931 12.75891,23.5536 v 64.4994 h 66.63831 c 6.32968,0 12.20326,1.9465 17.06046,5.27 5.38088,4.3134 8.71478,10.3517 10.14718,16.8367 1.6299,7.3801 0.71342,15.3393 -3.94498,21.993 -1.4849,2.1207 -3.25724,3.9737 -5.23224,5.5304 -8.55848,6.7454 -20.93746,7.9345 -30.37024,1.3151 -10.06058,-7.06 -13.33114,-21.3686 -6.05906,-31.7071 6.2963,-8.9512 19.03711,-11.8571 28.24789,-5.3624 7.96868,5.6188 10.55343,16.9702 4.74855,25.1824 -5.0187,7.0997 -15.14127,9.3994 -22.47047,4.2054 -6.33298,-4.488 -8.38183,-13.5255 -3.72793,-20.0752 2.00978,-2.8287 0.13256,-3.9047 -2.13992,-0.6739 -5.3676,7.6309 -2.89562,18.4585 4.67206,23.7691 8.90138,6.2464 21.49433,3.366 27.66601,-5.4493 7.2334,-10.3314 3.892,-24.9118 -6.32778,-32.0507 -3.32498,-2.3228 -7.13784,-3.731 -11.07322,-4.2561 0,0 -1.46495,-0.2439 -3.61373,-0.2439 h -92.33029 c -15.52566,0 -28.11188,12.5862 -28.11198,28.112 10e-5,15.5257 12.58633,28.1119 28.11198,28.1119 h 94.84279 c 0.024,0 0.0489,10e-5 0.0729,0 h 1.80195 c 12.48648,0.085 23.94547,-8.2124 27.32805,-20.8364 0.7497,-2.7979 1.04643,-5.6095 0.94103,-8.3597 0.021,-0.5808 0.0249,-1.1626 0.0119,-1.7446 v -29.5667 h 0.0103 v -64.4994 c -1e-4,-15.5263 -12.58665,-28.113 -28.11301,-28.113 z m -28.0386,11.3254 v 7.5422 h 14.21102 l -12.64729,25.8005 h 9.49657 l 14.64769,-31.733 v -1.6097 z m 75.02953,4.1062 h 26.4759 v 3.4355 h -26.4759 z m 19.81326,7.2854 c 3.98169,1.4381 6.83834,5.3421 6.83834,9.9332 0,5.8094 -4.57546,10.5198 -10.21695,10.5198 -5.64139,0 -10.21488,-4.7104 -10.21488,-10.5198 h 5.2e-4 c 0,-4.5064 2.74777,-8.3487 6.61407,-9.8485 l -0.016,3.7626 c -1.988,1.2324 -3.23443,3.5278 -3.23443,6.0859 0,3.884 3.06607,7.0337 6.85126,7.0337 3.7851,0 6.85384,-3.1497 6.85384,-7.0337 0,-2.6459 -1.4217,-4.9508 -3.52329,-6.1516 z m -19.81326,24.0367 h 26.52551 v 3.2965 h -20.17965 l 20.17965,14.3221 v 3.422 h -20.05149 l 20.05149,13.8147 v 4.3098 l -26.52551,-18.1245 v -3.422 h 20.55947 l -20.55947,-14.3221 z m -63.11708,3.2892 a 3.999236,3.999236 0 0 0 -0.58033,0.025 3.999236,3.999236 0 0 0 -2.9993,1.9724 l -12.76924,22.116 a 3.999236,3.999236 0 0 0 3.46335,5.9991 h 25.53849 a 3.999236,3.999236 0 0 0 3.46336,-5.9991 l -12.76925,-22.116 a 3.999236,3.999236 0 0 0 -3.34708,-1.9978 z" /></g></svg>