<svg class="winding-icon" width="20mm" height="20mm" viewBox="0 0 153.12396 153.12299" version="1.1" id="wd-B2" xmlns="http://www.w3.org/2000/svg"><g transform="translate(859.20293,-1163.4478)"><path d="m -831.09147,1163.4478 c -15.52567,0 -28.11146,12.5859 -28.11146,28.1115 v 96.8927 c 0,15.5257 12.58579,28.112 28.11146,28.112 h 96.25614 c 8.95848,0.1966 17.85879,-3.882 23.47919,-11.7109 9.05419,-12.6122 6.16916,-30.1769 -6.44302,-39.2312 -0.78831,-0.5659 -1.5959,-1.0848 -2.41949,-1.558 -3.8315,-2.201 -7.99971,-3.3107 -12.3672,-3.2768 v -5e-4 h -25.739 v 25.4289 c -0.012,4.8154 1.36215,9.6113 4.17494,13.6379 6.63408,9.4969 20.18261,12.6018 29.78319,5.8803 8.19158,-5.7352 10.86889,-17.4374 5.06429,-25.709 -4.93488,-7.0323 -14.99656,-9.3293 -22.08754,-4.3414 -3.0023,2.1118 -2.00166,3.8562 0.62684,1.9885 6.08638,-4.3246 14.48408,-2.4206 18.65467,3.4644 4.8266,6.8107 2.68931,16.2172 -3.90829,20.8809 -7.63128,5.3943 -18.17977,2.9924 -23.40115,-4.4126 -6.0352,-8.5593 -3.33431,-20.3987 4.98367,-26.2496 9.60708,-6.7577 22.90284,-3.7187 29.46332,5.6301 6.15118,8.7655 5.04665,20.269 -1.22163,28.2221 -1.4466,1.8353 -3.16843,3.4818 -5.13922,4.8617 -6.18291,4.3288 -13.57901,5.1812 -20.437,3.6665 -6.02638,-1.331 -11.63727,-4.4297 -15.64555,-9.43 -3.0883,-4.5136 -4.8979,-9.9713 -4.8979,-15.8533 v -96.8927 c 0,-9.8575 5.07423,-18.5296 12.75271,-23.548 a 2.4255131,2.4255131 0 0 0 -0.8909,-4.5635 z m 96.73983,10.6133 c -3.89375,0 -6.937,1.1034 -9.12916,3.3109 -2.23815,2.2075 -3.3569,5.2048 -3.3569,8.9912 v 0.2299 h 8.09408 v -0.4139 c 0,-1.7323 0.39865,-3.0662 1.19579,-4.0013 0.75116,-0.9198 1.84718,-1.3792 3.28818,-1.3792 1.18038,0 2.16906,0.36 2.96622,1.0805 0.7205,0.7665 1.08056,1.7399 1.08056,2.9203 0,0.7205 -0.22207,1.5405 -0.66663,2.4603 -0.36792,0.7972 -1.04255,1.7858 -2.02365,2.9662 l -15.1076,17.8904 h 25.70851 v -7.1515 h -10.3017 l 6.07043,-6.6916 c 1.5943,-1.7476 2.75164,-3.3803 3.47214,-4.8979 0.7205,-1.533 1.08107,-3.0736 1.08107,-4.6219 0,-3.2499 -1.1272,-5.8407 -3.38067,-7.7722 -2.22282,-1.9469 -5.21954,-2.9202 -8.99067,-2.9202 z m 7.51117,41.4057 a 3.999236,3.999236 0 0 0 -0.21032,0.01 3.999236,3.999236 0 0 0 -1.76734,0.5291 l -22.11699,12.7688 a 3.999236,3.999236 0 0 0 0,6.9272 l 22.11699,12.7692 a 3.999236,3.999236 0 0 0 5.99912,-3.4638 v -25.538 a 3.999236,3.999236 0 0 0 -4.02146,-3.9993 z m -100.35615,11.2169 c 5.8093,0 10.51977,4.5756 10.51977,10.217 0,5.6415 -4.71047,10.2149 -10.51977,10.2149 v -6e-4 c -4.50658,0 -8.34859,-2.7477 -9.84849,-6.614 l 3.76308,0.016 c 1.23239,1.988 3.52721,3.2344 6.08541,3.2344 3.884,0 7.03368,-3.0662 7.03368,-6.8512 0,-3.7852 -3.14968,-6.8539 -7.03368,-6.8539 -2.646,0 -4.95025,1.4222 -6.15104,3.5238 l -3.78168,-0.048 c 1.43809,-3.9818 5.34164,-6.8385 9.93272,-6.8384 z m 14.10353,0.1261 h 3.29644 v 20.1797 l 14.32213,-20.1797 h 3.42201 v 20.052 l 13.81466,-20.052 h 4.30982 l -18.12448,26.5255 h -3.42201 v -20.5594 l -14.32213,20.5594 h -3.29644 z m -31.3216,0.05 h 3.43493 v 26.4759 h -3.43493 z" /></g></svg>