<svg class="winding-icon" width="20mm" height="20mm" viewBox="0 0 153.12396 153.12299" version="1.1" id="wd-B4" xmlns="http://www.w3.org/2000/svg"><g transform="translate(473.57996,-1163.4478)"><path d="m -445.4685,1163.4478 c -15.52566,0 -28.11146,12.5859 -28.11146,28.1115 v 96.8927 c 0,15.5257 12.5858,28.112 28.11146,28.112 h 96.25614 c 8.95848,0.1966 17.85881,-3.882 23.47919,-11.7109 9.05419,-12.6122 6.16916,-30.1769 -6.44302,-39.2312 -0.78831,-0.5659 -1.5959,-1.0848 -2.41949,-1.558 -3.83148,-2.201 -7.99972,-3.3107 -12.3672,-3.2768 v -5e-4 h -25.739 v 25.4289 c -0.012,4.8154 1.36215,9.6113 4.17494,13.6379 6.63408,9.4969 20.18261,12.6018 29.78319,5.8803 8.1916,-5.7352 10.86889,-17.4374 5.0643,-25.709 -4.93489,-7.0323 -14.99655,-9.3293 -22.08755,-4.3414 -3.00228,2.1118 -2.00166,3.8562 0.62684,1.9885 6.08638,-4.3246 14.48409,-2.4206 18.65468,3.4644 4.82659,6.8107 2.68929,16.2172 -3.90829,20.8809 -7.6313,5.3943 -18.17977,2.9924 -23.40116,-4.4126 -6.03518,-8.5593 -3.33432,-20.3987 4.98368,-26.2496 9.60708,-6.7577 22.90283,-3.7187 29.46331,5.6301 6.1512,8.7655 5.04667,20.269 -1.22163,28.2221 -1.4466,1.8353 -3.16843,3.4818 -5.13922,4.8617 -6.18289,4.3288 -13.57902,5.1812 -20.43699,3.6665 -6.0264,-1.331 -11.63727,-4.4297 -15.64556,-9.43 -3.0883,-4.5136 -4.89789,-9.9713 -4.89789,-15.8533 v -96.8927 c 0,-9.8575 5.07422,-18.5296 12.75271,-23.548 a 2.4255131,2.4255131 0 0 0 -0.8909,-4.5635 z m 95.98071,11.1885 -12.53205,19.361 v 6.5769 h 15.31482 v 7.5422 h 7.68016 v -7.5422 l 3.72483,0.046 v -6.6229 h -3.72483 v -19.361 z m 3.01273,5.7024 c -0.092,0.4139 -0.13797,0.9273 -0.13797,1.5405 -0.061,0.8278 -0.092,1.6024 -0.092,2.3229 v 9.7952 h -8.25531 l 6.18567,-9.4278 c 0.7665,-1.3031 1.20312,-2.0538 1.31052,-2.2531 0.3525,-0.5979 0.68248,-1.2572 0.98908,-1.9777 z m -91.86054,19.1353 26.52551,18.1245 v 3.422 h -20.55946 l 20.55946,14.3221 v 3.2965 h -26.52551 v -3.2965 h 20.17965 l -20.17965,-14.3221 v -3.422 h 20.05201 l -20.05201,-13.8147 z m 76.99892,21.3894 a 3.999236,3.999236 0 0 0 -3.46387,5.9991 l 12.76924,22.117 a 3.999236,3.999236 0 0 0 6.92723,0 l 12.76873,-22.117 a 3.999236,3.999236 0 0 0 -3.46336,-5.9991 z m -66.90806,21.3594 c 5.64148,0 10.21488,4.7105 10.21488,10.5198 h -5.2e-4 c 0,4.5066 -2.74725,8.3486 -6.61355,9.8485 l 0.016,-3.7626 c 1.98801,-1.2324 3.23391,-3.5277 3.23391,-6.0859 0,-3.884 -3.06616,-7.0337 -6.85126,-7.0337 -3.78519,0 -6.85333,3.1497 -6.85333,7.0337 0,2.646 1.4217,4.9508 3.5233,6.1516 l -0.0481,3.7816 c -3.98178,-1.4381 -6.83834,-5.3421 -6.83834,-9.9332 0,-5.8093 4.57545,-10.5198 10.21695,-10.5198 z m -10.04125,24.3029 h 26.4759 v 3.435 h -26.4759 z" /></g></svg>