<svg class="winding-icon" width="20mm" height="20mm" viewBox="0 0 153.1209 153.12045" version="1.1" id="wd-B6" xmlns="http://www.w3.org/2000/svg"><g transform="translate(859.2014,-1356.2597)"><path d="m -814.84759,1356.2597 c -2.3983,0.2325 -3.02435,3.4425 -0.88935,4.5594 h -0.002 c 7.68208,5.0181 12.75891,13.6931 12.75891,23.5536 v 64.4994 h 66.63831 c 6.32969,0 12.20326,1.9465 17.06046,5.27 5.38088,4.3134 8.71479,10.3517 10.14718,16.8367 1.6299,7.3801 0.71342,15.3393 -3.94498,21.993 -1.48489,2.1207 -3.25724,3.9737 -5.23223,5.5304 -8.55849,6.7454 -20.93746,7.9345 -30.37024,1.3151 -10.06058,-7.06 -13.33115,-21.3686 -6.05907,-31.7071 6.2963,-8.9512 19.03711,-11.8571 28.24789,-5.3624 7.96869,5.6188 10.55343,16.9702 4.74855,25.1824 -5.01869,7.0997 -15.14127,9.3994 -22.47046,4.2054 -6.33299,-4.488 -8.38184,-13.5255 -3.72794,-20.0752 2.00979,-2.8287 0.13257,-3.9047 -2.13992,-0.6739 -5.3676,7.6309 -2.89562,18.4585 4.67206,23.7691 8.90139,6.2464 21.49433,3.366 27.66602,-5.4493 7.23339,-10.3314 3.892,-24.9118 -6.32778,-32.0507 -3.32499,-2.3228 -7.13784,-3.731 -11.07323,-4.2561 0,0 -1.46494,-0.2439 -3.61373,-0.2439 h -92.33028 c -15.52567,0 -28.11188,12.5862 -28.11198,28.112 1e-4,15.5257 12.58632,28.1119 28.11198,28.1119 h 94.84279 c 0.024,0 0.0489,10e-5 0.0729,0 h 1.80196 c 12.48648,0.085 23.94546,-8.2124 27.32805,-20.8364 0.74969,-2.7979 1.04642,-5.6095 0.94102,-8.3597 0.021,-0.5808 0.0249,-1.1626 0.0119,-1.7446 v -29.5667 h 0.0103 v -64.4994 c -10e-5,-15.5263 -12.58664,-28.113 -28.11301,-28.113 z m -18.14618,11.3259 -4.71392,7.2895 c -2.48342,3.8632 -4.10076,6.7985 -4.8519,8.8067 -0.78182,1.9623 -1.17254,3.9395 -1.17254,5.9324 0,1.2724 0.12266,2.4376 0.36793,3.4954 0.26061,1.0577 0.65873,2.0619 1.19528,3.0123 0.53653,0.9351 1.16517,1.7398 1.88567,2.4143 2.28414,2.1922 5.38871,3.2887 9.31313,3.2887 3.89377,0 7.0364,-1.1114 9.42785,-3.3342 2.3148,-2.2382 3.47214,-5.2126 3.47214,-8.9224 0,-3.0506 -0.9427,-5.5875 -2.82825,-7.611 -1.80892,-2.008 -4.16219,-3.0122 -7.05952,-3.0122 -0.65918,0 -1.27248,0.046 -1.83968,0.138 -0.50588,0.077 -1.06525,0.1993 -1.67845,0.3679 l 7.86412,-11.8654 z m 1.93167,17.246 c 1.57895,0 2.82037,0.4521 3.72483,1.3565 0.90446,0.9505 1.35703,2.223 1.35703,3.8173 0,1.5636 -0.45257,2.821 -1.35703,3.7714 -0.90446,0.9045 -2.14588,1.3565 -3.72483,1.3565 -1.57897,0 -2.8209,-0.452 -3.72536,-1.3565 -0.90446,-0.9504 -1.35651,-2.2078 -1.35651,-3.7714 0,-1.5943 0.45205,-2.8668 1.35651,-3.8173 0.90446,-0.9044 2.14639,-1.3565 3.72536,-1.3565 z m 60.09348,10.3653 c 5.80939,0 10.51978,4.5754 10.51978,10.2169 0,5.6414 -4.71039,10.2144 -10.51978,10.2144 -4.5064,0 -8.34868,-2.7478 -9.84849,-6.6141 l 3.76308,0.016 c 1.2324,1.988 3.52732,3.2344 6.08541,3.2344 3.88399,0 7.03368,-3.0671 7.03368,-6.8523 0,-3.785 -3.14969,-6.8528 -7.03368,-6.8528 -2.64589,0 -4.95024,1.4217 -6.15104,3.5233 l -3.78168,-0.048 c 1.4381,-3.9817 5.34163,-6.8378 9.93272,-6.8378 z m 14.10405,0.1255 h 3.29593 v 20.1802 l 14.32264,-20.1802 h 3.42201 v 20.052 l 13.81414,-20.052 h 4.30982 l -18.12396,26.5261 h -3.42201 v -20.56 l -14.32264,20.56 h -3.29593 z m -31.32212,0.05 h 3.43545 v 26.4759 h -3.43545 z m -35.54873,12.8994 a 3.999236,3.999236 0 0 0 -0.20981,0.01 3.999236,3.999236 0 0 0 -1.76733,0.5292 l -22.117,12.7693 a 3.999236,3.999236 0 0 0 0,6.9267 l 22.117,12.7692 a 3.999236,3.999236 0 0 0 5.99912,-3.4639 v -25.5379 a 3.999236,3.999236 0 0 0 -4.02198,-3.9993 z" /></g></svg>