<svg class="winding-icon" width="20mm" height="20mm" viewBox="0 0 153.12091 153.12045" version="1.1" id="wd-B8" xmlns="http://www.w3.org/2000/svg"><g transform="translate(473.57844,-1356.2597)"><path d="m -429.22463,1356.2597 c -2.39828,0.2325 -3.02435,3.4425 -0.88935,4.5594 h -0.002 c 7.68209,5.0181 12.75892,13.6931 12.75892,23.5536 v 64.4994 h 66.63831 c 6.32969,0 12.20326,1.9465 17.06045,5.27 5.38089,4.3134 8.7148,10.3517 10.14719,16.8367 1.6299,7.3801 0.7134,15.3393 -3.94498,21.993 -1.4849,2.1207 -3.25725,3.9737 -5.23224,5.5304 -8.55849,6.7454 -20.93746,7.9345 -30.37024,1.3151 -10.06058,-7.06 -13.33115,-21.3686 -6.05906,-31.7071 6.29628,-8.9512 19.03711,-11.8571 28.24789,-5.3624 7.96869,5.6188 10.55344,16.9702 4.74854,25.1824 -5.01868,7.0997 -15.14128,9.3994 -22.47046,4.2054 -6.33299,-4.488 -8.38183,-13.5255 -3.72794,-20.0752 2.0098,-2.8287 0.13258,-3.9047 -2.13992,-0.6739 -5.36759,7.6309 -2.89562,18.4585 4.67207,23.7691 8.90138,6.2464 21.49432,3.366 27.66601,-5.4493 7.23338,-10.3314 3.892,-24.9118 -6.32778,-32.0507 -3.325,-2.3228 -7.13783,-3.731 -11.07323,-4.2561 0,0 -1.46493,-0.2439 -3.61373,-0.2439 h -92.33028 c -15.52567,0 -28.11188,12.5862 -28.11198,28.112 10e-5,15.5257 12.58632,28.1119 28.11198,28.1119 h 94.84279 c 0.024,0 0.0489,10e-5 0.0729,0 h 1.80196 c 12.48648,0.085 23.94545,-8.2124 27.32805,-20.8364 0.74969,-2.7979 1.04643,-5.6095 0.94103,-8.3597 0.021,-0.5808 0.0249,-1.1626 0.0119,-1.7446 v -29.5667 h 0.0103 v -64.4994 c -10e-5,-15.5263 -12.58664,-28.113 -28.11302,-28.113 z m -16.26464,10.6593 c -3.60248,0 -6.41574,0.8047 -8.43928,2.4143 -2.00818,1.579 -3.01221,3.8096 -3.01221,6.6916 0,1.8089 0.49063,3.2957 1.47174,4.4607 0.98111,1.2111 2.34519,2.0311 4.09277,2.4603 -2.2228,0.4139 -3.91679,1.3725 -5.08186,2.8748 -1.22638,1.5483 -1.83916,3.4951 -1.83916,5.8404 0,3.1886 1.12669,5.6799 3.38015,7.4735 2.28414,1.7936 5.42679,2.6903 9.42785,2.6903 4.04707,0 7.19711,-0.8967 9.45059,-2.6903 2.26881,-1.7936 3.40341,-4.2849 3.40341,-7.4735 0,-2.3453 -0.6133,-4.2921 -1.83968,-5.8404 -1.16507,-1.5023 -2.85907,-2.4609 -5.08186,-2.8748 1.7476,-0.4292 3.11218,-1.2492 4.09329,-2.4603 0.9811,-1.165 1.47174,-2.6518 1.47174,-4.4607 0,-2.882 -1.00455,-5.1126 -3.01273,-6.6916 -2.02354,-1.6096 -4.85159,-2.4143 -8.48476,-2.4143 z m 63.38166,1.0681 26.52552,18.124 v 3.422 h -20.55947 l 20.55947,14.3227 v 3.2964 h -26.52552 v -3.2964 h 20.17965 l -20.17965,-14.3227 v -3.422 h 20.05149 l -20.05149,-13.8141 z m -63.38166,4.5424 c 1.27237,0 2.26106,0.3294 2.96623,0.9886 0.68984,0.6898 1.03456,1.6329 1.03456,2.8287 0,1.165 -0.36005,2.1078 -1.08055,2.8283 -0.68984,0.6899 -1.66319,1.0346 -2.92024,1.0346 -1.22638,0 -2.1844,-0.3447 -2.87424,-1.0346 -0.72051,-0.7205 -1.08107,-1.6633 -1.08107,-2.8283 0,-1.1958 0.34523,-2.1389 1.03508,-2.8287 0.70516,-0.6592 1.67851,-0.9886 2.92023,-0.9886 z m 0,13.6591 c 1.48699,0 2.629,0.3908 3.42615,1.1726 0.82781,0.8278 1.24178,1.9084 1.24178,3.2421 0,1.3796 -0.41397,2.4837 -1.24178,3.3115 -0.79715,0.7818 -1.93916,1.1725 -3.42615,1.1725 -1.441,0 -2.55234,-0.406 -3.33416,-1.2185 -0.85847,-0.8125 -1.28778,-1.9012 -1.28778,-3.2655 0,-1.3337 0.41398,-2.4143 1.24179,-3.2421 0.79715,-0.7818 1.92382,-1.1726 3.38015,-1.1726 z m 73.47252,24.5474 c 5.64139,0 10.21488,4.7103 10.21488,10.5197 h -5.2e-4 c 0,4.5064 -2.74778,8.3487 -6.61406,9.8485 l 0.016,-3.7631 c 1.988,-1.2324 3.23443,-3.5273 3.23443,-6.0854 0,-3.884 -3.06607,-7.0337 -6.85127,-7.0337 -3.78507,0 -6.85384,3.1497 -6.85384,7.0337 0,2.6459 1.42223,4.9503 3.52381,6.1511 l -0.048,3.7817 c -3.98169,-1.4381 -6.83835,-5.3417 -6.83835,-9.9328 0,-5.8094 4.57548,-10.5197 10.21695,-10.5197 z m -86.21903,2.9362 a 3.999236,3.999236 0 0 0 -3.46335,5.9991 l 12.76925,22.117 a 3.999236,3.999236 0 0 0 6.9267,0 l 12.76925,-22.117 a 3.999236,3.999236 0 0 0 -3.46335,-5.9991 z m 76.17778,21.3667 h 26.47591 v 3.4344 H -382.058 Z" /></g></svg>