<svg class="winding-icon" width="20mm" height="20mm" viewBox="0 0 153.12395 153.12299" version="1.1" id="wd-1" xmlns="http://www.w3.org/2000/svg"><g transform="translate(260.38101,-1163.4479)"><path d="m -232.26954,1163.4479 c -15.52568,0 -28.11147,12.5857 -28.11147,28.1114 v 96.8928 c 0,15.5256 12.58578,28.1119 28.11146,28.112 h 96.25665 c 8.95849,0.1965 17.85828,-3.882 23.47867,-11.7109 9.05419,-12.6122 6.16917,-30.1769 -6.44302,-39.2312 -0.7883,-0.5658 -1.59589,-1.0849 -2.41949,-1.5581 -3.83149,-2.201 -7.99971,-3.3108 -12.3672,-3.2768 v -5e-4 h -25.739 v 25.4289 c -0.012,4.8155 1.36266,9.6115 4.17546,13.638 6.63409,9.4969 20.1827,12.6018 29.78319,5.8802 8.19159,-5.7352 10.86837,-17.4373 5.06378,-25.709 -4.9349,-7.0324 -14.99655,-9.3291 -22.08755,-4.3413 -3.00229,2.1118 -2.00166,3.8561 0.62684,1.9885 6.08639,-4.3247 14.48408,-2.4206 18.65468,3.4644 4.82649,6.8107 2.6893,16.2173 -3.90829,20.8809 -7.6313,5.3943 -18.17925,2.9922 -23.40064,-4.4127 -6.0352,-8.5593 -3.33484,-20.3986 4.98316,-26.2495 9.60709,-6.7576 22.90334,-3.7189 29.46383,5.6301 6.15119,8.7655 5.04615,20.2691 -1.22215,28.2221 -1.4466,1.8353 -3.16842,3.4819 -5.13922,4.8617 -6.18289,4.3288 -13.57848,5.1805 -20.43648,3.6659 -6.02649,-1.331 -11.63777,-4.4292 -15.64607,-9.4294 -3.0883,-4.5136 -4.89738,-9.9714 -4.89738,-15.8533 v -96.8928 c 0,-9.8575 5.07381,-18.5299 12.7522,-23.5484 a 2.4255131,2.4255131 0 0 0 -0.8909,-4.563 z m 90.23222,11.3259 -3.95531,7.6341 h 7.22075 v 25.7085 h 8.37003 v -33.3426 z m -0.47129,40.6998 a 3.999236,3.999236 0 0 0 -4.23178,3.9925 v 25.5385 a 3.999236,3.999236 0 0 0 5.99912,3.4634 l 22.11648,-12.7693 a 3.999236,3.999236 0 0 0 0,-6.9267 l -22.11648,-12.7692 a 3.999236,3.999236 0 0 0 -1.76734,-0.5292 z m -85.88623,10.9818 c 11.70839,0 17.41946,5.1931 18.21336,11.8897 h -12.51448 c -0.74942,-2.4718 -3.12519,-4.2804 -5.93659,-4.2804 -3.4123,0 -6.18257,2.6639 -6.18257,5.9449 0,3.2809 2.77027,5.9443 6.18257,5.9443 2.9888,0 5.48505,-2.0437 6.05855,-4.7558 h 12.43903 c -0.5928,6.9249 -6.44448,12.3652 -18.25987,12.3652 -10.36799,0 -18.78542,-6.0731 -18.78542,-13.5537 0,-7.4807 8.41742,-13.5542 18.78542,-13.5542 z m 15.55668,1.6645 h 13.79192 l 3.32899,3.8044 3.329,-3.8044 h 13.3165 l -7.55768,10.2252 h -18.20612 z m 6.81715,13.0782 h 20.60802 l 8.71937,10.7007 h -14.26735 l -4.7563,-5.2312 -4.75526,5.2312 h -14.26786 z"/></g></svg>