<svg class="winding-icon" width="20mm" height="20mm" viewBox="0 0 153.12395 153.12299" version="1.1" id="wd-2" xmlns="http://www.w3.org/2000/svg"><g transform="translate(67.569546,-1163.4479)" id="g1"><path d="m -39.458086,1163.4479 c -15.52558,0 -28.11146,12.5857 -28.11146,28.1114 v 96.8928 c 0,15.5256 12.58588,28.1119 28.11146,28.112 h 96.25666 c 8.95849,0.1965 17.85828,-3.882 23.47867,-11.7109 9.05419,-12.6122 6.16917,-30.1769 -6.44302,-39.2312 -0.7883,-0.5658 -1.59589,-1.0849 -2.41949,-1.5581 -3.83149,-2.201 -7.99971,-3.3108 -12.3672,-3.2768 l -25.738999,-5e-4 v 25.4289 c -0.012,4.8155 1.362659,9.6115 4.175459,13.638 6.63409,9.4969 20.1826,12.6018 29.78319,5.8802 8.19159,-5.7352 10.86837,-17.4373 5.06378,-25.709 -4.9349,-7.0324 -14.99645,-9.3291 -22.08755,-4.3413 -3.00219,2.1118 -2.00166,3.8561 0.62684,1.9885 6.08629,-4.3247 14.48408,-2.4206 18.65468,3.4644 4.82649,6.8107 2.6893,16.2173 -3.90829,20.8809 -7.6313,5.3943 -18.17935,2.9922 -23.40064,-4.4127 -6.0352,-8.5593 -3.33484,-20.3986 4.98316,-26.2495 9.60709,-6.7576 22.90334,-3.7189 29.46383,5.6301 6.15119,8.7655 5.04615,20.2691 -1.22215,28.2221 -1.4466,1.8353 -3.16842,3.4819 -5.13922,4.8617 -6.18289,4.3288 -13.57858,5.1805 -20.43648,3.6659 -6.02649,-1.331 -11.63777,-4.4292 -15.64607,-9.4294 -3.088299,-4.5136 -4.897379,-9.9714 -4.897379,-15.8533 v -96.8928 c 0,-9.8575 5.073809,-18.5299 12.752199,-23.5484 2.135952,-1.1182 1.509257,-4.3298 -0.89039,-4.563 z m 96.73983,10.6133 c -3.89376,0 -6.93699,1.1034 -9.12915,3.3109 -2.23815,2.2075 -3.3569,5.2047 -3.3569,8.9911 v 0.23 h 8.09407 v -0.4139 c 0,-1.7323 0.39865,-3.0662 1.1958,-4.0013 0.75116,-0.9198 1.84717,-1.3793 3.28817,-1.3793 1.18039,0 2.16907,0.3601 2.96623,1.0806 0.7205,0.7665 1.08055,1.7398 1.08055,2.9202 0,0.7205 -0.22207,1.5405 -0.66663,2.4603 -0.36792,0.7972 -1.04254,1.7859 -2.02364,2.9663 l -15.10761,17.8903 h 25.70851 v -7.1515 h -10.3017 l 6.07043,-6.6915 c 1.5943,-1.7476 2.75164,-3.3803 3.47214,-4.8979 0.7205,-1.533 1.08107,-3.0737 1.08107,-4.622 0,-3.2499 -1.12719,-5.8406 -3.38067,-7.7721 -2.22282,-1.9469 -5.21954,-2.9202 -8.99067,-2.9202 z m 7.30085,41.4124 c -0.622302,0.036 -1.227514,0.2175 -1.76733,0.5292 l -22.117,12.7687 c -2.666527,1.5392 -2.666527,5.388 0,6.9272 l 22.117,12.7693 c 2.666391,1.5397 5.999578,-0.3849 5.99911,-3.4639 v -25.538 c 1.8e-5,-2.3002 -1.93552,-4.1262 -4.23178,-3.9925 z m -67.2501596,10.9818 c 10.3678898,0 18.7854206,6.0735 18.7854206,13.5542 0,7.4806 -8.4175308,13.5537 -18.7854206,13.5537 -11.7084904,0 -17.4189404,-5.1927 -18.2128404,-11.8892 h 12.5144804 c 0.7494,2.4718 3.12468,4.2798 5.93607,4.2798 3.41230003,0 6.1825698,-2.6634 6.1825698,-5.9443 0,-3.281 -2.77026977,-5.9449 -6.1825698,-5.9449 -2.98879,0 -5.48504,2.0437 -6.05854,4.7558 H -20.926916 c 0.5928,-6.9249 6.44386,-12.3651 18.2593504,-12.3651 z m -51.7007204,1.6645 h 14.26735 l 4.75578,5.2317 4.75578,-5.2317 h 14.26735 l -8.71885,10.7006 h -20.60856 z m 9.93531,13.5542 h 18.20664 l 8.0021,10.2247 h -13.79192 l -3.329,-3.8044 -3.329,3.8044 h -13.3165 z" /></g></svg>