<svg class="winding-icon" width="20mm" height="20mm" viewBox="0 0 153.12395 153.12299" version="1.1" id="wd-4" xmlns="http://www.w3.org/2000/svg"><g transform="translate(-318.0534,-1163.4479)"><path d="m 346.16486,1163.4479 c -15.52568,0 -28.11146,12.5858 -28.11146,28.1114 v 96.8928 c 0,15.5257 12.58578,28.112 28.11146,28.112 h 96.2567 c 8.9585,0.1966 17.8582,-3.882 23.4786,-11.7109 9.0542,-12.6122 6.1692,-30.1769 -6.443,-39.2312 -0.7883,-0.5659 -1.5959,-1.085 -2.4195,-1.5581 -3.8315,-2.201 -7.9997,-3.3108 -12.3672,-3.2768 v -5e-4 h -25.739 v 25.429 c -0.012,4.8155 1.3627,9.6113 4.1755,13.6379 6.6341,9.4969 20.1827,12.6018 29.7832,5.8802 8.1916,-5.7351 10.8683,-17.4374 5.0638,-25.709 -4.9349,-7.0324 -14.9966,-9.3292 -22.0876,-4.3413 -3.0023,2.1118 -2.0017,3.8562 0.6268,1.9885 6.0864,-4.3246 14.4841,-2.4206 18.6547,3.4644 4.8265,6.8107 2.6893,16.2173 -3.9083,20.8809 -7.6313,5.3943 -18.1792,2.9922 -23.4006,-4.4127 -6.0352,-8.5593 -3.3348,-20.3986 4.9832,-26.2495 9.607,-6.7577 22.9033,-3.7188 29.4638,5.6301 6.1512,8.7655 5.0461,20.269 -1.2222,28.2221 -1.4466,1.8353 -3.1684,3.4819 -5.1392,4.8617 -6.1829,4.3288 -13.5785,5.1806 -20.4365,3.6659 -6.0265,-1.331 -11.6377,-4.4291 -15.646,-9.4294 -3.0883,-4.5135 -4.8974,-9.9713 -4.8974,-15.8533 v -96.8928 c 0,-9.8575 5.0738,-18.53 12.7522,-23.5484 a 2.4255131,2.4255131 0 0 0 -0.8909,-4.563 z m 95.9807,11.1884 -12.532,19.3611 v 6.5769 h 15.3148 v 7.5421 h 7.6801 v -7.5421 l 3.7249,0.046 v -6.6229 h -3.7249 v -19.3611 z m 3.0127,5.7025 c -0.092,0.4139 -0.1379,0.9273 -0.1379,1.5405 -0.061,0.8278 -0.092,1.6023 -0.092,2.3228 v 9.7953 h -8.2553 l 6.1856,-9.4278 c 0.7665,-1.3031 1.2032,-2.0538 1.3106,-2.2531 0.3525,-0.5979 0.6824,-1.2572 0.989,-1.9777 z m -78.66079,24.4275 c 7.48069,0 13.55421,8.4175 13.55421,18.7854 0,11.7084 -5.19322,17.4194 -11.88971,18.2133 v -12.5144 c 2.4718,-0.7494 4.28036,-3.1252 4.28036,-5.9366 0,-3.4124 -2.66396,-6.1826 -5.94486,-6.1826 -3.28099,0 -5.94485,2.7702 -5.94485,6.1826 0,2.9887 2.04368,5.4851 4.75578,6.0585 v 12.4385 c -6.9249,-0.5928 -12.36514,-6.444 -12.36514,-18.2593 0,-10.3679 6.07352,-18.7854 13.55421,-18.7854 z m 63.79919,16.0972 a 3.999236,3.999236 0 0 0 -3.4638,5.9991 l 12.7692,22.117 a 3.999236,3.999236 0 0 0 6.9272,0 l 12.7688,-22.117 a 3.999236,3.999236 0 0 0 -3.4634,-5.9991 z m -75.6889,16.3426 10.70064,8.7189 v 20.6086 l -10.70064,8.7188 v -14.2673 l 5.23172,-4.7558 -5.23172,-4.7558 z m 23.77943,1.9023 v 13.7919 l -3.80494,3.329 3.80494,3.329 v 13.3165 l -10.22522,-7.5577 v -18.2066 z" /></g></svg>