<svg class="winding-icon" width="20mm" height="20mm" viewBox="0 0 153.12109 153.12056" version="1.1" id="wd-5" xmlns="http://www.w3.org/2000/svg"><g transform="translate(260.37959,-1356.2596)"><path d="m -216.02627,1356.2596 c -2.39829,0.2326 -3.02486,3.4425 -0.88986,4.5594 h -10e-4 c 7.68208,5.0181 12.75891,13.693 12.75891,23.5536 v 64.4994 h 66.63831 c 6.32972,0 12.20328,1.9466 17.06046,5.27 5.3809,4.3134 8.7148,10.3519 10.14718,16.8372 1.62988,7.38 0.7134,15.3389 -3.94498,21.9925 -1.48489,2.1209 -3.25723,3.9737 -5.23223,5.5304 -8.55846,6.7455 -20.93752,7.9345 -30.37024,1.3152 -10.06068,-7.06 -13.33115,-21.3688 -6.05906,-31.7072 6.29638,-8.9511 19.03709,-11.857 28.24788,-5.3624 7.96867,5.6189 10.55344,16.9701 4.74855,25.1824 -5.01867,7.0998 -15.14135,9.3994 -22.47046,4.2054 -6.33309,-4.4879 -8.38193,-13.525 -3.72794,-20.0747 2.00979,-2.8286 0.13268,-3.9052 -2.13992,-0.6744 -5.36759,7.6308 -2.89572,18.4585 4.67207,23.7691 8.90131,6.2464 21.49434,3.3659 27.66601,-5.4493 7.23338,-10.3313 3.892,-24.9116 -6.32778,-32.0507 -3.32499,-2.3227 -7.13781,-3.731 -11.07323,-4.2561 0,0 -1.46496,-0.2439 -3.61373,-0.2439 h -92.33028 c -15.52565,10e-5 -28.11188,12.5863 -28.11198,28.112 1e-4,15.5256 12.58633,28.112 28.11198,28.112 h 94.84279 c 0.024,-10e-5 0.0489,10e-5 0.0729,0 h 1.80196 c 12.48649,0.086 23.94545,-8.2124 27.32805,-20.8365 0.74968,-2.7978 1.04642,-5.6095 0.94102,-8.3597 0.021,-0.5807 0.0254,-1.1627 0.0124,-1.7446 v -29.5667 h 0.01 v -64.4994 c -1e-4,-15.5263 -12.58663,-28.1129 -28.11301,-28.113 z m -24.12411,11.3259 -2.78277,17.7059 1.12706,0.6667 c 0.96578,-0.9658 1.93913,-1.6553 2.92024,-2.0692 1.10374,-0.4445 2.33034,-0.6671 3.67936,-0.6671 1.99287,0 3.62552,0.5673 4.89789,1.7017 1.25705,1.1191 1.88516,2.5751 1.88516,4.3687 0,1.8856 -0.58212,3.3194 -1.74718,4.3005 -1.16507,1.0271 -2.81304,1.5405 -4.94389,1.5405 -1.60963,0 -3.09687,-0.3606 -4.46122,-1.0811 -1.441,-0.7511 -2.54494,-1.7245 -3.31143,-2.9202 l -0.71262,-0.138 -0.59789,8.1401 c 1.36435,0.9044 2.92033,1.5637 4.66793,1.9776 1.70161,0.4753 3.5949,0.7132 5.67976,0.7132 4.26168,0 7.6417,-1.0812 10.14046,-3.2427 2.43744,-2.1922 3.65611,-5.1429 3.65611,-8.8527 0,-3.5412 -0.98868,-6.3238 -2.96623,-8.3473 -1.99287,-2.0389 -4.69086,-3.0582 -8.09408,-3.0582 -0.42923,0 -1.11919,0.031 -2.06964,0.092 -0.33725,0.046 -1.0267,0.1686 -2.06912,0.3679 l 0.66662,-4.3227 h 12.76201 v -6.8755 z m 67.98345,27.3834 c 11.70847,0 17.41946,5.1927 18.21336,11.8892 h -12.51448 c -0.7495,-2.4718 -3.1252,-4.2799 -5.93659,-4.2799 -3.41239,0 -6.18257,2.6639 -6.18257,5.9449 0,3.281 2.77018,5.9443 6.18257,5.9443 2.98869,0 5.48505,-2.0437 6.05855,-4.7558 h 12.43851 c -0.5927,6.9248 -6.44398,12.3652 -18.25935,12.3652 -10.36797,0 -18.78541,-6.073 -18.78541,-13.5537 0,-7.4807 8.41744,-13.5542 18.78541,-13.5542 z m 15.55668,1.6645 h 13.79192 l 3.32899,3.8044 3.329,-3.8044 h 13.3165 l -7.55768,10.2247 h -18.20664 z m -82.79288,11.6453 a 3.999236,3.999236 0 0 0 -4.23179,3.9925 v 25.5385 a 3.999236,3.999236 0 0 0 5.99912,3.4633 l 22.11648,-12.7692 a 3.999236,3.999236 0 0 0 0,-6.9267 l -22.11648,-12.7693 a 3.999236,3.999236 0 0 0 -1.76733,-0.5291 z m 89.60951,1.4329 h 20.60856 l 8.71885,10.7007 h -14.26734 l -4.75579,-5.2312 -4.75578,5.2312 h -14.26734 z" /></g></svg>