<svg class="winding-icon" width="20mm" height="20mm" viewBox="0 0 153.12395 153.12299" version="1.1" id="wd-B3" xmlns="http://www.w3.org/2000/svg"><g transform="translate(-125.24193,-1163.4479)"><path d="m 153.35338,1163.4479 c -15.52558,0 -28.11145,12.5858 -28.11145,28.1114 v 96.8928 c 0,15.5257 12.58587,28.112 28.11145,28.112 h 96.25666 c 8.95849,0.1966 17.85828,-3.882 23.47867,-11.7109 9.05419,-12.6122 6.16917,-30.1769 -6.44302,-39.2312 -0.7883,-0.5659 -1.59589,-1.085 -2.41949,-1.5581 -3.83149,-2.201 -7.99971,-3.3108 -12.3672,-3.2768 v -5e-4 H 226.12 v 25.4289 c -0.012,4.8155 1.36266,9.6114 4.17546,13.638 6.63409,9.4969 20.1826,12.6018 29.78319,5.8802 8.19159,-5.7352 10.86837,-17.4374 5.06378,-25.709 -4.9349,-7.0324 -14.99645,-9.3292 -22.08755,-4.3413 -3.00219,2.1118 -2.00166,3.8562 0.62684,1.9885 6.08629,-4.3246 14.48408,-2.4206 18.65468,3.4644 4.82649,6.8107 2.6893,16.2173 -3.90829,20.8809 -7.6313,5.3943 -18.17935,2.9922 -23.40064,-4.4127 -6.0352,-8.5593 -3.33484,-20.3986 4.98316,-26.2495 9.60709,-6.7577 22.90334,-3.7188 29.46383,5.6301 6.15119,8.7655 5.04615,20.269 -1.22215,28.2221 -1.4466,1.8353 -3.16842,3.4819 -5.13922,4.8617 -6.18289,4.3288 -13.57858,5.1806 -20.43648,3.6659 -6.02649,-1.331 -11.63777,-4.4291 -15.64607,-9.4294 -3.0883,-4.5135 -4.89738,-9.9713 -4.89738,-15.8533 v -96.8928 c 0,-9.8575 5.07381,-18.53 12.7522,-23.5484 a 2.4255131,2.4255131 0 0 0 -0.89039,-4.563 z m 97.06178,10.6592 c -3.89377,0 -6.891,0.8661 -8.99118,2.5983 -2.14618,1.7783 -3.24219,4.2236 -3.28817,7.3355 h 8.14007 c 0.046,-1.1957 0.39122,-2.085 1.03508,-2.6675 0.62852,-0.6286 1.52521,-0.9426 2.69027,-0.9426 1.10375,0 1.99303,0.3294 2.66754,0.9886 0.70517,0.5978 1.0573,1.4258 1.0573,2.4835 0,1.2877 -0.41346,2.2611 -1.24127,2.9203 -0.82781,0.6898 -2.01633,1.035 -3.56464,1.035 h -0.48266 v 5.4266 c 0.18396,0 0.32936,-0.015 0.43667,-0.046 h 0.59789 c 1.70161,0 2.95887,0.36 3.77135,1.0805 0.81248,0.7205 1.21853,1.8631 1.21853,3.4267 0,1.4104 -0.37539,2.4678 -1.12655,3.1729 -0.79715,0.7205 -1.87782,1.0811 -3.24218,1.0811 -1.33369,0 -2.35304,-0.3759 -3.05821,-1.127 -0.68984,-0.7359 -1.03508,-1.8546 -1.03508,-3.3569 v -0.552 h -8.53074 v 0.322 c 0,3.6178 1.14201,6.4765 3.42615,8.5767 2.29947,2.1002 5.41143,3.1502 9.33586,3.1502 3.74047,0 6.76785,-1.0193 9.08265,-3.0582 2.33013,-2.0235 3.49539,-4.6755 3.49539,-7.9561 0,-2.2535 -0.58263,-4.1008 -1.74769,-5.5418 -1.16507,-1.4563 -2.79771,-2.3762 -4.89789,-2.7595 1.7016,-0.4905 3.02019,-1.3486 3.95531,-2.575 0.90446,-1.2111 1.35651,-2.6597 1.35651,-4.346 0,-2.6981 -0.98869,-4.8139 -2.96623,-6.3469 -1.96222,-1.5483 -4.66021,-2.3224 -8.09408,-2.3224 z m -64.83945,30.6592 v 14.2673 l -5.23121,4.7558 5.23121,4.7558 v 14.2673 l -10.70064,-8.7188 v -20.6086 z m -23.77891,2.3781 10.22469,7.5572 v 18.2066 l -10.22469,8.0021 v -13.7919 l 3.80441,-3.329 -3.80441,-3.329 z m 87.99307,6.3743 a 3.999236,3.999236 0 0 0 -2.9993,1.9725 l -12.76924,22.1165 a 3.999236,3.999236 0 0 0 3.46387,5.9991 h 25.53797 a 3.999236,3.999236 0 0 0 3.46336,-5.9991 l -12.76873,-22.1165 a 3.999236,3.999236 0 0 0 -3.92793,-1.9725 z m -74.9148,24.6889 c 6.92489,0.5927 12.36513,6.444 12.36513,18.2594 0,10.3679 -6.073,18.7854 -13.55369,18.7854 -7.48069,0 -13.55421,-8.4175 -13.55421,-18.7854 0,-11.7085 5.1926,-17.419 11.88919,-18.2129 v 12.5145 c -2.47179,0.7494 -4.27984,3.1247 -4.27984,5.9361 0,3.4124 2.66386,6.1826 5.94486,6.1826 3.2809,0 5.94434,-2.7702 5.94434,-6.1826 0,-2.9887 -2.04369,-5.4851 -4.75578,-6.0586 z" /></g></svg>