<svg class="winding-icon" width="20mm" height="20mm" viewBox="0 0 153.1209 153.12004" version="1.1" id="wd-B6" xmlns="http://www.w3.org/2000/svg"><g transform="translate(67.568011,-1356.2599)"><path d="m -23.214671,1356.2599 c -2.3983,0.2325 -3.02486,3.4426 -0.88987,4.5595 h -10e-4 c 7.68208,5.018 12.75891,13.693 12.75891,23.5536 v 64.4989 h 66.63831 c 6.32968,0 12.20326,1.9469 17.06045,5.2704 5.3809,4.3134 8.71479,10.3521 10.14719,16.8373 1.6299,7.3799 0.71342,15.3388 -3.94498,21.9924 -1.48489,2.1208 -3.25724,3.9737 -5.23224,5.5304 -8.55848,6.7454 -20.93746,7.9341 -30.37024,1.3147 -10.060579,-7.06 -13.331139,-21.3688 -6.05906,-31.7071 6.29629,-8.9512 19.03711,-11.8567 28.24789,-5.362 7.96868,5.6188 10.55343,16.9703 4.74855,25.1825 -5.0187,7.0999 -15.14128,9.399 -22.47047,4.2049 -6.33299,-4.488 -8.38183,-13.5247 -3.72794,-20.0743 2.0098,-2.8287 0.13258,-3.9056 -2.13992,-0.6749 -5.36759,7.6309 -2.89561,18.4591 4.67207,23.7697 8.90138,6.2465 21.49432,3.3654 27.66601,-5.4498 7.23339,-10.3314 3.89201,-24.9113 -6.32778,-32.0503 -3.32499,-2.3228 -7.13783,-3.731 -11.07322,-4.2561 0,0 -1.46494,-0.2439 -3.61374,-0.2439 h -92.33028 c -15.52568,0 -28.11188,12.5863 -28.11198,28.112 1e-4,15.5257 12.5863,28.1115 28.11198,28.1115 h 94.84279 c 0.024,0 0.04887,10e-5 0.07287,0 h 1.80195 c 12.48647,0.085 23.94546,-8.212 27.32805,-20.836 0.7497,-2.7979 1.04643,-5.6095 0.94103,-8.3597 0.021,-0.5808 0.02488,-1.1626 0.01188,-1.7446 v -29.5671 h 0.01034 v -64.4989 c -1e-4,-15.5264 -12.58716,-28.1131 -28.11353,-28.1131 z m -18.14566,11.326 -4.71393,7.2894 c -2.48342,3.8632 -4.10074,6.7985 -4.8519,8.8067 -0.78182,1.9623 -1.17254,3.9396 -1.17254,5.9325 0,1.2724 0.12267,2.4376 0.36794,3.4954 0.26061,1.0577 0.65873,2.0618 1.19528,3.0122 0.53653,0.9351 1.16517,1.7398 1.88567,2.4143 2.28414,2.1922 5.3887,3.2887 9.31312,3.2887 3.89377,0 7.0364,-1.1113 9.42785,-3.3341 2.3148,-2.2382 3.47214,-5.2127 3.47214,-8.9225 0,-3.0506 -0.94268,-5.5874 -2.82825,-7.6109 -1.80892,-2.0082 -4.16219,-3.0122 -7.05952,-3.0122 -0.65918,0 -1.27248,0.046 -1.83968,0.138 -0.50588,0.077 -1.06525,0.1993 -1.67845,0.3679 l 7.86412,-11.8654 z m 1.93166,17.2459 c 1.57897,0 2.82038,0.4521 3.72484,1.3565 0.90446,0.9505 1.35702,2.2231 1.35702,3.8174 0,1.5636 -0.45256,2.8209 -1.35702,3.7713 -0.90446,0.9045 -2.14587,1.3565 -3.72484,1.3565 -1.57897,0 -2.82089,-0.452 -3.72535,-1.3565 -0.90446,-0.9504 -1.35651,-2.2077 -1.35651,-3.7713 0,-1.5943 0.45205,-2.8669 1.35651,-3.8174 0.90446,-0.9044 2.14638,-1.3565 3.72535,-1.3565 z m 92.98916,10.1369 c 10.36791,0 18.78541,6.074 18.78541,13.5547 0,7.4807 -8.4175,13.5537 -18.78541,13.5537 -11.70847,0 -17.41946,-5.1927 -18.21336,-11.8892 h 12.51448 c 0.74944,2.4718 3.12519,4.2799 5.93659,4.2799 3.41236,0 6.18257,-2.6635 6.18257,-5.9444 0,-3.281 -2.77021,-5.9448 -6.18257,-5.9448 -2.98875,0 -5.48507,2.0436 -6.05855,4.7557 h -12.43903 c 0.59278,-6.9249 6.44446,-12.3656 18.25987,-12.3656 z m -51.7012398,1.6645 H 16.1266 l 4.75629,5.2317 4.75527,-5.2317 h 14.267859 l -8.719359,10.7011 H 10.5781 Z m -34.1710402,11.6458 a 3.999236,3.999236 0 0 0 -1.76734,0.5292 l -22.11699,12.7692 a 3.999236,3.999236 0 0 0 0,6.9267 l 22.11699,12.7693 a 3.999236,3.999236 0 0 0 5.99912,-3.4639 v -25.538 a 3.999236,3.999236 0 0 0 -4.23178,-3.9925 z m 44.106872,1.9089 H 30.0012 l 8.002099,10.2247 H 24.21189 l -3.329,-3.8049 -3.32951,3.8049 H 4.2373997 Z" /></g></svg>