<svg class="winding-icon" width="20mm" height="20mm" viewBox="0 0 153.1209 153.12056" version="1.1" id="wd-B7" xmlns="http://www.w3.org/2000/svg"><g transform="translate(-125.24345,-1356.2596)"><path d="m 169.59678,1356.2596 c -2.3983,0.2325 -3.02487,3.4425 -0.88987,4.5594 h -0.001 c 7.6821,5.0181 12.75892,13.693 12.75892,23.5536 v 64.4994 h 66.63831 c 6.32972,0 12.20327,1.9465 17.06045,5.27 5.3809,4.3134 8.71479,10.352 10.14718,16.8372 1.62989,7.38 0.71341,15.3389 -3.94497,21.9925 -1.4849,2.1208 -3.25724,3.9737 -5.23224,5.5304 -8.55848,6.7454 -20.9375,7.9345 -30.37024,1.3151 -10.06069,-7.0599 -13.33167,-21.3686 -6.05958,-31.7071 6.2964,-8.9512 19.0376,-11.8571 28.24841,-5.3624 7.96868,5.6188 10.55344,16.9702 4.74854,25.1824 -5.01868,7.0999 -15.14134,9.3995 -22.47046,4.2054 -6.33309,-4.4879 -8.38193,-13.5251 -3.72794,-20.0747 2.0098,-2.8286 0.13216,-3.9051 -2.14043,-0.6744 -5.3676,7.6309 -2.89521,18.4585 4.67258,23.7691 8.90133,6.2465 21.49433,3.366 27.66601,-5.4493 7.23338,-10.3314 3.892,-24.9117 -6.32778,-32.0507 -3.325,-2.3227 -7.1378,-3.731 -11.07323,-4.2561 0,0 -1.46496,-0.2439 -3.61373,-0.2439 h -92.33028 c -15.52568,0 -28.11188,12.5863 -28.11198,28.112 1e-4,15.5257 12.5863,28.112 28.11198,28.112 h 94.84279 c 0.024,0 0.0489,2e-4 0.0729,0 h 1.80196 c 12.48651,0.086 23.94545,-8.2125 27.32805,-20.8365 0.7497,-2.7979 1.04642,-5.6095 0.94102,-8.3597 0.021,-0.5808 0.0249,-1.1626 0.0119,-1.7446 v -29.5667 h 0.0103 v -64.4994 c -10e-5,-15.5264 -12.58661,-28.113 -28.11302,-28.113 z m -28.03809,11.3259 v 7.5422 h 14.21102 l -12.64729,25.8005 h 9.49658 l 14.64769,-31.733 v -1.6097 z m 100.24453,3.0484 v 14.2674 l -5.23172,4.7557 5.23172,4.7558 v 14.2674 l -10.70064,-8.7189 v -20.6085 z m -23.77891,2.3777 10.22418,7.5576 v 18.2067 l -10.22418,8.0021 v -13.792 l 3.8039,-3.329 -3.8039,-3.3289 z m 13.07827,31.0637 c 6.925,0.5928 12.36514,6.444 12.36514,18.2593 0,10.368 -6.07342,18.7855 -13.55421,18.7855 -7.48079,0 -13.5537,-8.4175 -13.5537,-18.7855 0,-11.7084 5.19209,-17.4189 11.88868,-18.2128 v 12.5145 c -2.47179,0.7494 -4.27932,3.1247 -4.27932,5.936 0,3.4124 2.66334,6.1826 5.94434,6.1826 3.28089,0 5.94485,-2.7702 5.94485,-6.1826 0,-2.9886 -2.04368,-5.485 -4.75578,-6.0585 z m -78.21176,2.2526 a 3.999236,3.999236 0 0 0 -2.9993,1.9725 l -12.76925,22.1164 a 3.999236,3.999236 0 0 0 3.46336,5.9991 h 25.53849 a 3.999236,3.999236 0 0 0 3.46335,-5.9991 l -12.76924,-22.1164 a 3.999236,3.999236 0 0 0 -3.92741,-1.9725 z" /></g></svg>