<svg class="winding-icon" width="20mm" height="20mm" viewBox="0 0 153.12022 153.12006" version="1.1" id="wd-B8" xmlns="http://www.w3.org/2000/svg"><g transform="translate(-318.05526,-1356.2599)"><path d="m 362.40707,1356.2599 c -2.3983,0.2325 -3.02424,3.4425 -0.88935,4.5594 7.68209,5.0181 12.75891,13.6931 12.75891,23.5536 v 64.4995 h 66.63835 c 6.3296,0 12.2027,1.9464 17.0599,5.2699 5.3809,4.3134 8.7153,10.3519 10.1477,16.8372 1.6299,7.38 0.7129,15.3384 -3.9455,21.992 -1.4849,2.1209 -3.2567,3.9738 -5.2317,5.5304 -8.5585,6.7455 -20.9375,7.9345 -30.3703,1.3151 -10.0605,-7.0599 -13.3311,-21.3682 -6.059,-31.7065 6.2963,-8.9512 19.0371,-11.8576 28.2479,-5.363 7.9687,5.6189 10.5529,16.9707 4.748,25.1829 -5.0187,7.0999 -15.1408,9.3994 -22.4699,4.2055 -6.3329,-4.488 -8.3819,-13.5252 -3.728,-20.0748 2.0098,-2.8287 0.1326,-3.9051 -2.1399,-0.6744 -5.3676,7.6309 -2.8956,18.4585 4.6721,23.7691 8.9013,6.2464 21.4943,3.3659 27.666,-5.4492 7.2334,-10.3314 3.892,-24.9122 -6.3278,-32.0513 -3.325,-2.3227 -7.1378,-3.7305 -11.0732,-4.2556 0,0 -1.4655,-0.2439 -3.6143,-0.2439 h -92.32974 c -15.52567,0 -28.11188,12.5858 -28.11198,28.1115 1e-4,15.5256 12.58631,28.112 28.11198,28.112 h 94.84224 c 0.024,0 0.049,10e-5 0.073,0 h 1.802 c 12.4865,0.086 23.9454,-8.212 27.328,-20.836 0.7497,-2.7979 1.0464,-5.6096 0.941,-8.3597 0.021,-0.5808 0.025,-1.1626 0.012,-1.7446 v -29.5666 h 0.01 v -64.4995 c -10e-5,-15.5263 -12.5867,-28.113 -28.113,-28.113 z m -16.26309,10.6593 c -3.6025,0 -6.41574,0.8047 -8.43928,2.4143 -2.0082,1.579 -3.01222,3.8096 -3.01222,6.6916 0,1.8089 0.49064,3.2957 1.47175,4.4607 0.98111,1.2111 2.34517,2.0311 4.09277,2.4603 -2.22282,0.4139 -3.91679,1.3725 -5.08186,2.8748 -1.22638,1.5483 -1.83916,3.495 -1.83916,5.8405 0,3.1886 1.12667,5.6798 3.38015,7.4734 2.28414,1.7936 5.42677,2.6903 9.42785,2.6903 4.04707,0 7.19711,-0.8967 9.45059,-2.6903 2.26881,-1.7936 3.40341,-4.2848 3.40341,-7.4734 0,-2.3455 -0.6133,-4.2922 -1.83968,-5.8405 -1.16507,-1.5023 -2.85905,-2.4609 -5.08186,-2.8748 1.7476,-0.4292 3.11218,-1.2492 4.09329,-2.4603 0.9811,-1.165 1.47174,-2.6518 1.47174,-4.4607 0,-2.882 -1.00453,-5.1126 -3.01273,-6.6916 -2.02354,-1.6096 -4.85159,-2.4143 -8.48476,-2.4143 z m 76.5803,3.715 c 7.4807,0 13.5543,8.4176 13.5543,18.7855 0,11.7084 -5.1932,17.4189 -11.8898,18.2128 v -12.5145 c 2.4718,-0.7494 4.2804,-3.1247 4.2804,-5.9361 0,-3.4122 -2.6639,-6.183 -5.9449,-6.183 -3.2808,0 -5.9448,2.7708 -5.9448,6.183 0,2.9888 2.0437,5.4851 4.7558,6.0586 v 12.4385 c -6.9249,-0.5928 -12.3652,-6.4439 -12.3652,-18.2593 0,-10.3679 6.0736,-18.7855 13.5542,-18.7855 z m -76.5803,1.8955 c 1.27237,0 2.26106,0.3294 2.96623,0.9886 0.68984,0.6898 1.03456,1.633 1.03456,2.8288 0,1.165 -0.36005,2.1077 -1.08055,2.8282 -0.68984,0.6899 -1.66319,1.0346 -2.92024,1.0346 -1.22638,0 -2.1844,-0.3447 -2.87424,-1.0346 -0.72051,-0.7205 -1.08107,-1.6632 -1.08107,-2.8282 0,-1.1958 0.34523,-2.139 1.03508,-2.8288 0.70516,-0.6592 1.67851,-0.9886 2.92023,-0.9886 z m 0,13.6591 c 1.48699,0 2.629,0.3908 3.42615,1.1726 0.82781,0.8278 1.24178,1.9085 1.24178,3.2422 0,1.3796 -0.41397,2.4836 -1.24178,3.3114 -0.79715,0.7818 -1.93916,1.1725 -3.42615,1.1725 -1.441,0 -2.55234,-0.406 -3.33416,-1.2185 -0.85847,-0.8125 -1.28778,-1.9011 -1.28778,-3.2654 0,-1.3337 0.41398,-2.4144 1.24179,-3.2422 0.79715,-0.7818 1.92382,-1.1726 3.38015,-1.1726 z m 64.6906,16.8853 10.7007,8.7183 v 20.6091 l -10.7007,8.7184 v -14.2669 l 5.2317,-4.7558 -5.2317,-4.7563 z m 23.7795,1.9022 v 13.7919 l -3.805,3.329 3.805,3.329 v 13.3165 l -10.2253,-7.5582 v -18.2061 z m -101.21661,8.6961 a 3.999236,3.999236 0 0 0 -3.46335,5.9992 l 12.76925,22.1169 a 3.999236,3.999236 0 0 0 6.9267,0 l 12.76925,-22.1169 a 3.999236,3.999236 0 0 0 -3.46335,-5.9992 z" /></g></svg>