<?xml version="1.0" encoding="UTF-8" standalone="no"?>
<!-- Created with Inkscape (http://www.inkscape.org/) -->

<svg
   version="1.1"
   id="svg2"
   width="350.75311"
   height="53.5354"
   viewBox="0 0 350.75311 53.5354"
   xmlns="http://www.w3.org/2000/svg"
  >
  <defs
     id="defs6">
    <clipPath
       clipPathUnits="userSpaceOnUse"
       id="clipPath910">
      <g
         id="g916"
         style="stroke-width:1">
        <g
           id="g914"
           style="stroke-width:1">
          <path
             d="M 0,612 H 792 V 0 H 0 Z"
             id="path912"
             style="stroke-width:1" />
        </g>
      </g>
    </clipPath>
    <clipPath
       clipPathUnits="userSpaceOnUse"
       id="clipPath925">
      <g
         id="g931"
         style="stroke-width:1">
        <g
           id="g929"
           style="stroke-width:1">
          <path
             d="M 0,612 H 792 V 0 H 0 Z"
             id="path927"
             style="stroke-width:1" />
        </g>
      </g>
    </clipPath>
    <clipPath
       clipPathUnits="userSpaceOnUse"
       id="clipPath940">
      <g
         id="g946"
         style="stroke-width:1">
        <g
           id="g944"
           style="stroke-width:1">
          <path
             d="M 0,612 H 792 V 0 H 0 Z"
             id="path942"
             style="stroke-width:1" />
        </g>
      </g>
    </clipPath>
    <clipPath
       clipPathUnits="userSpaceOnUse"
       id="clipPath970">
      <g
         id="g976"
         style="stroke-width:1">
        <g
           id="g974"
           style="stroke-width:1">
          <path
             d="M 0,612 H 792 V 0 H 0 Z"
             id="path972"
             style="stroke-width:1" />
        </g>
      </g>
    </clipPath>
    <clipPath
       clipPathUnits="userSpaceOnUse"
       id="clipPath985">
      <g
         id="g991"
         style="stroke-width:1">
        <g
           id="g989"
           style="stroke-width:1">
          <path
             d="M 0,612 H 792 V 0 H 0 Z"
             id="path987"
             style="stroke-width:1" />
        </g>
      </g>
    </clipPath>
    <clipPath
       clipPathUnits="userSpaceOnUse"
       id="clipPath1000">
      <g
         id="g1006"
         style="stroke-width:1">
        <g
           id="g1004"
           style="stroke-width:1">
          <path
             d="M 0,612 H 792 V 0 H 0 Z"
             id="path1002"
             style="stroke-width:1" />
        </g>
      </g>
    </clipPath>
    <clipPath
       clipPathUnits="userSpaceOnUse"
       id="clipPath1015">
      <g
         id="g1021"
         style="stroke-width:1">
        <g
           id="g1019"
           style="stroke-width:1">
          <path
             d="M 0,612 H 792 V 0 H 0 Z"
             id="path1017"
             style="stroke-width:1" />
        </g>
      </g>
    </clipPath>
    <clipPath
       clipPathUnits="userSpaceOnUse"
       id="clipPath1030">
      <g
         id="g1036"
         style="stroke-width:1">
        <g
           id="g1034"
           style="stroke-width:1">
          <path
             d="M 0,612 H 792 V 0 H 0 Z"
             id="path1032"
             style="stroke-width:1" />
        </g>
      </g>
    </clipPath>
    <clipPath
       clipPathUnits="userSpaceOnUse"
       id="clipPath1045">
      <g
         id="g1051"
         style="stroke-width:1">
        <g
           id="g1049"
           style="stroke-width:1">
          <path
             d="M 0,612 H 792 V 0 H 0 Z"
             id="path1047"
             style="stroke-width:1" />
        </g>
      </g>
    </clipPath>
    <clipPath
       clipPathUnits="userSpaceOnUse"
       id="clipPath1060">
      <g
         id="g1066"
         style="stroke-width:1">
        <g
           id="g1064"
           style="stroke-width:1">
          <path
             d="M 0,612 H 792 V 0 H 0 Z"
             id="path1062"
             style="stroke-width:1" />
        </g>
      </g>
    </clipPath>
    <clipPath
       clipPathUnits="userSpaceOnUse"
       id="clipPath1075">
      <g
         id="g1081"
         style="stroke-width:1">
        <g
           id="g1079"
           style="stroke-width:1">
          <path
             d="M 0,612 H 792 V 0 H 0 Z"
             id="path1077"
             style="stroke-width:1" />
        </g>
      </g>
    </clipPath>
    <clipPath
       clipPathUnits="userSpaceOnUse"
       id="clipPath1090">
      <g
         id="g1096"
         style="stroke-width:1">
        <g
           id="g1094"
           style="stroke-width:1">
          <path
             d="M 0,612 H 792 V 0 H 0 Z"
             id="path1092"
             style="stroke-width:1" />
        </g>
      </g>
    </clipPath>
    <clipPath
       clipPathUnits="userSpaceOnUse"
       id="clipPath1105">
      <g
         id="g1111"
         style="stroke-width:1">
        <g
           id="g1109"
           style="stroke-width:1">
          <path
             d="M 0,612 H 792 V 0 H 0 Z"
             id="path1107"
             style="stroke-width:1" />
        </g>
      </g>
    </clipPath>
    <clipPath
       clipPathUnits="userSpaceOnUse"
       id="clipPath1120">
      <g
         id="g1126"
         style="stroke-width:1">
        <g
           id="g1124"
           style="stroke-width:1">
          <path
             d="M 0,612 H 792 V 0 H 0 Z"
             id="path1122"
             style="stroke-width:1" />
        </g>
      </g>
    </clipPath>
    <clipPath
       clipPathUnits="userSpaceOnUse"
       id="clipPath1135">
      <g
         id="g1141"
         style="stroke-width:1">
        <g
           id="g1139"
           style="stroke-width:1">
          <path
             d="M 0,612 H 792 V 0 H 0 Z"
             id="path1137"
             style="stroke-width:1" />
        </g>
      </g>
    </clipPath>
    <clipPath
       clipPathUnits="userSpaceOnUse"
       id="clipPath1150">
      <g
         id="g1156"
         style="stroke-width:1">
        <g
           id="g1154"
           style="stroke-width:1">
          <path
             d="M 0,612 H 792 V 0 H 0 Z"
             id="path1152"
             style="stroke-width:1" />
        </g>
      </g>
    </clipPath>
  </defs>
  <g
     id="g10"
     transform="matrix(1.3333333,0,0,-1.3333333,-471.97401,440.43846)">
    <path
       id="path50"
       clip-path="none"
       style="fill:#ff5000;fill-opacity:1;fill-rule:nonzero;stroke:none;stroke-width:1"
       d="m 502.69745,328.36082 c -1.64288,0.37258 -3.43305,0.66715 -5.30475,0.66715 -5.2276,0 -9.7863,-1.56048 -12.30937,-3.97046 v 2.73172 h -17.69126 v -35.69726 h 17.69126 v 20.25027 c 0.0175,0.26827 0.13852,0.60578 0.22618,0.86616 0.97925,2.80009 6.78721,3.99587 11.54492,2.01985 2.58355,-0.98801 4.08792,-1.56924 5.87809,-2.53095 z m 58.59764,-36.37181 h 20.27482 l 7.51572,7.74103 7.51484,-7.74103 h 20.4449 l -15.33038,18.74941 12.69072,16.9724 h -20.43964 l -4.88044,-5.6598 -4.88044,5.6598 h -20.43964 l 12.69511,-16.9724 z m 0.41607,14.05159 -36.1733,-0.0184 c 1.56925,-2.92896 4.73316,-4.86203 8.38275,-4.86203 3.17268,-0.15604 6.51018,1.1616 9.01483,2.65194 h 17.3634 c -0.75482,-8.4336 -13.03701,-13.47008 -25.79699,-13.47008 -15.85464,0 -28.71018,8.95521 -28.71018,19.98902 0,11.04346 12.85554,19.9978 28.71018,19.9978 14.64482,0 29.62717,-10.15889 27.20931,-24.28823 m -19.61206,8.75445 c -1.59906,2.90355 -4.60692,4.79365 -8.17849,4.79365 -3.54527,0 -6.63554,-1.93306 -8.24336,-4.80241 z m -132.70055,-6.60476 c -0.66715,-11.24246 -11.81493,-18.01301 -26.70698,-18.01301 -15.85639,0 -28.71105,8.95434 -28.71105,19.99779 0,11.04346 12.85466,19.98903 28.71105,19.98903 14.64045,0 27.04099,-7.43682 26.37384,-17.50979 l -17.88501,-0.0175 c -1.12302,3.91786 -4.75946,6.78721 -9.0762,6.78721 -5.20481,0 -9.42862,-4.17823 -9.42862,-9.3357 0,-5.15747 4.22381,-9.33569 9.42862,-9.33569 4.55344,0 8.3547,3.18934 9.24014,7.4377 z m 35.72189,-13.54899 c -3.43393,-2.78256 -8.28193,-4.29921 -13.77341,-4.29921 -10.37192,0 -18.77834,6.04116 -18.77834,13.71293 v 23.62985 h 17.52733 v -17.5098 c 0,-4.13439 3.38132,-7.77521 7.55254,-7.77521 4.16945,0 7.47188,3.14638 7.47188,7.272 v 18.01301 h 17.60711 v -35.69551 h -17.60711 z" />
  </g>
</svg>
