<?xml version="1.0" encoding="UTF-8" standalone="no"?>
<!-- Generator: Gravit.io -->

<svg
   style="isolation:isolate"
   viewBox="0 0 512 512"
   width="512pt"
   height="512pt"
   version="1.1"
   id="svg299"
   sodipodi:docname="mcl-w.svg"
   inkscape:version="1.2.1 (9c6d41e410, 2022-07-14)"
   xmlns:inkscape="http://www.inkscape.org/namespaces/inkscape"
   xmlns:sodipodi="http://sodipodi.sourceforge.net/DTD/sodipodi-0.dtd"
   xmlns="http://www.w3.org/2000/svg"
  >
  <defs
     id="defs303" />
  <sodipodi:namedview
     id="namedview301"
     pagecolor="#505050"
     bordercolor="#ffffff"
     borderopacity="1"
     inkscape:showpageshadow="0"
     inkscape:pageopacity="0"
     inkscape:pagecheckerboard="1"
     inkscape:deskcolor="#505050"
     inkscape:document-units="pt"
     showgrid="false"
     inkscape:zoom="0.69140625"
     inkscape:cx="338.44068"
     inkscape:cy="355.07345"
     inkscape:window-width="1440"
     inkscape:window-height="837"
     inkscape:window-x="-8"
     inkscape:window-y="-8"
     inkscape:window-maximized="1"
     inkscape:current-layer="svg299" />
  <path
     id="path1188"
     style="fill:#ffffff;fill-opacity:1;fill-rule:nonzero;stroke:none;stroke-width:0.999997"
     d="M 487.04575,139.20406 H 512 v 192.31631 h -24.95425 z m 0,0 H 512 v 192.31631 h -24.95425 z m -27.62714,143.92007 c -10.44007,28.92269 -38.79604,49.67181 -72.15075,49.67181 -42.19765,0 -76.40856,-33.23467 -76.40856,-74.21308 0,-40.9784 34.21091,-74.19923 76.40856,-74.19923 32.73419,0 60.64184,19.95891 71.53598,48.04956 l -27.33295,-0.12792 c -8.95216,-14.44051 -25.61512,-23.49451 -44.20303,-23.49451 -28.20643,0 -51.0922,22.27433 -51.0922,49.76894 0,27.49459 22.88577,49.78276 51.0922,49.78276 19.21993,0 35.96344,-10.32957 44.68557,-25.59507 z m 0,0 c -10.44602,28.92269 -38.80199,49.67181 -72.15085,49.67181 -42.19773,0 -76.41426,-33.23467 -76.41426,-74.21308 0,-40.9784 34.21653,-74.19923 76.41426,-74.19923 32.7341,0 60.64184,19.95891 71.53599,48.04265 l -27.33316,-0.11527 c -8.95196,-14.44049 -25.62078,-23.49438 -44.20283,-23.49438 -28.21227,0 -51.09239,22.27433 -51.09239,49.76881 0,27.49459 22.88012,49.78276 51.09239,49.78276 19.21983,0 35.95758,-10.32943 44.67982,-25.59493 z M 0.00198375,331.88225 131.65128,139.20547 h 24.85084 v 149.34136 l 104.0405,-149.34136 h 23.94291 V 331.88225 H 260.54262 V 185.3001 L 156.50212,331.88225 H 131.65128 V 186.22914 L 31.30547,331.88225 Z M 0,331.88126 131.6493,139.20448 h 24.85659 V 288.54542 L 260.5402,139.20406 h 23.94302 V 331.88085 H 260.5402 V 185.29869 L 156.50558,331.88085 h -24.8566 V 186.22773 L 31.303159,331.88085 Z"
     sodipodi:nodetypes="cccccccccccsssccssscccsssccssscccccccccccccccccccccccccccccc"
     inkscape:export-filename="mcl.svg"
     inkscape:export-xdpi="96"
     inkscape:export-ydpi="96" />
</svg>
