<svg class="winding-icon" width="20mm" height="20mm" viewBox="0 0 20 20" version="1.1" id="p-b" xmlns="http://www.w3.org/2000/svg"><path d="m 1344.61793,-1128.65144 c -13.09255,0 -23.61095,10.52076 -23.61096,23.61355 v 87.33585 h 50.60208 v 18.554414 c 0,13.086564 10.50694,23.612515 23.59081,23.612515 h 0.0212 c 13.09353,0 23.61096,-10.517874 23.61096,-23.611475 v -113.664994 -4.49998 c 0,-4.42995 1.85772,-8.45455 4.82709,-11.33988 H 1344.62 Z m 90.05394,5.2e-4 c -6.26287,0 -11.33988,5.077 -11.33988,11.33987 v 15.83986 h 20.31349 c 1.30685,0 2.36626,-1.05941 2.36626,-2.36626 v -13.4736 c 0,-6.26287 -5.07704,-11.33987 -11.33987,-11.33987 z m -106.36922,56.79195 h 23.45076 c 1.54419,1.6e-4 2.79599,1.29892 2.79622,2.90112 v 23.24096 c -2.3e-4,1.6022 -1.25203,2.90095 -2.79622,2.90111 h -23.45076 c -1.54439,1.3e-4 -2.7965,-1.29871 -2.79673,-2.90111 v -23.24096 c 2.3e-4,-1.60241 1.25234,-2.90125 2.79673,-2.90112 z m 59.7824,0 h 23.45076 c 1.54419,1.7e-4 2.79598,1.29892 2.79621,2.90112 v 23.24096 c -2.3e-4,1.60219 -1.25202,2.90094 -2.79621,2.90111 h -23.45076 c -1.54419,-1.7e-4 -2.79598,-1.29892 -2.79621,-2.90111 v -23.24096 c 2.3e-4,-1.6022 1.25202,-2.90095 2.79621,-2.90112 z m -18.16582,7.5892 c 0.41275,8e-5 0.81821,0.1088 1.17564,0.31523 l 10.28568,5.93814 c 0.52288,0.30169 0.52288,1.05636 0,1.35805 l -10.28568,5.93814 c -0.72751,0.41993 -1.62377,0.41993 -2.35128,0 l -10.28567,-5.93814 c -0.52288,-0.30169 -0.52288,-1.05636 0,-1.35805 l 10.28567,-5.93814 c 0.35743,-0.20643 0.76289,-0.31515 1.17564,-0.31523 z m -74.65797,51.06668 c -1.30688,8e-5 -2.36627,1.05021 -2.36627,2.34559 6.2e-4,0.0102 5.5e-4,0.0203 0.002,0.0305 l -0.002,0.002 v 11.677834 c 0,13.086577 10.50696,23.612512 23.59081,23.612512 h 0.0212 l 63.49225,-5.17e-4 c -7.7487,-5.005787 -12.89017,-13.700833 -12.89017,-23.611995 v -14.055984 z" transform="matrix(0.130619282,0,0,0.130619282,-168.87711,147.42364)"/></svg>