<svg class="winding-icon" width="20mm" height="20mm" viewBox="0 0 20 20" version="1.1" id="p-l" xmlns="http://www.w3.org/2000/svg"><path d="m 1344.61774,-1128.65182 c -13.09256,0 -23.61095,10.52074 -23.61096,23.61354 v 87.33629 h 50.60208 v 18.554416 c 0,13.086577 10.50693,23.612511 23.59081,23.612511 h 0.0212 c 13.09355,0 23.61096,-10.51786 23.61096,-23.611481 v -113.665416 -4.49999 c 0,-4.42994 1.85772,-8.45455 4.82709,-11.33987 h -79.0391 z m 90.05394,5.1e-4 c -6.26287,0 -11.33988,5.07701 -11.33988,11.33988 v 15.83986 h 20.31349 c 1.30685,0 2.36627,-1.05942 2.36627,-2.36626 v -13.4736 c 0,-6.26287 -5.07704,-11.33988 -11.33988,-11.33988 z m -106.36922,56.79217 h 23.45077 c 1.54419,1.7e-4 2.79598,1.29892 2.79621,2.90111 v 23.24096 c -2.3e-4,1.6022 -1.25202,2.90095 -2.79621,2.90112 h -23.45077 c -1.54439,1.3e-4 -2.7965,-1.29871 -2.79673,-2.90112 v -23.24096 c 2.3e-4,-1.6024 1.25234,-2.90124 2.79673,-2.90111 z m 57.04665,0.0982 c 1.79629,0.13471 3.18496,1.63153 3.18482,3.43287 v 21.98109 c 1.7e-4,2.65001 -2.8686,4.30633 -5.16351,2.98121 l -19.03657,-10.99054 c -2.29516,-1.32486 -2.29516,-4.63757 0,-5.96243 l 19.03657,-10.99054 c 0.59918,-0.34599 1.28872,-0.50339 1.97869,-0.45166 z m -90.08804,58.55792 c -1.30688,8e-5 -2.36627,1.05021 -2.36627,2.34559 6.2e-4,0.0102 10e-4,0.0203 0.002,0.0305 l -0.002,0.002 v 11.677836 c 0,13.086583 10.50694,23.612508 23.59081,23.612508 h 0.0212 l 63.49225,-5.17e-4 c -7.7487,-5.005792 -12.89017,-13.700826 -12.89017,-23.611991 v -14.055986 z" transform="matrix(0.130619274,0,0,0.130619274,-168.87707,147.42368)"/></svg>